ISO-10303-21;
HEADER;
/* Generated by software containing ST-Developer
 * from STEP Tools, Inc. (www.steptools.com) 
 */

FILE_DESCRIPTION(
/* description */ ('',
'CAx-IF Rec.Pracs.---Representation and Presentation of Product Manufa
cturing Information (PMI)---4.0---2014-10-13'),
/* implementation_level */ '2;1');

FILE_NAME(
/* name */ 'Battery_3D v1.step',
/* time_stamp */ '2025-03-25T11:27:55+02:00',
/* author */ (''),
/* organization */ (''),
/* preprocessor_version */ 'ST-DEVELOPER v20',
/* originating_system */ 'Autodesk Translation Framework v13.20.0.188',

/* authorisation */ '');

FILE_SCHEMA (('AP242_MANAGED_MODEL_BASED_3D_ENGINEERING_MIM_LF { 1 0 10303 442 1 1 4 }'));
ENDSEC;

DATA;
#10=MECHANICAL_DESIGN_GEOMETRIC_PRESENTATION_REPRESENTATION('',(#13,#14,
#15,#16,#17,#18),#1202);
#11=SHAPE_REPRESENTATION_RELATIONSHIP('SRR','None',#1209,#12);
#12=ADVANCED_BREP_SHAPE_REPRESENTATION('',(#19,#20,#21,#22,#23,#24),#1201);
#13=STYLED_ITEM('',(#1219),#19);
#14=STYLED_ITEM('',(#1220),#20);
#15=STYLED_ITEM('',(#1221),#21);
#16=STYLED_ITEM('',(#1222),#22);
#17=STYLED_ITEM('',(#1222),#23);
#18=STYLED_ITEM('',(#1222),#24);
#19=MANIFOLD_SOLID_BREP('Battery Body',#745);
#20=MANIFOLD_SOLID_BREP('Battery',#746);
#21=MANIFOLD_SOLID_BREP('PCB',#747);
#22=MANIFOLD_SOLID_BREP('Body4',#748);
#23=MANIFOLD_SOLID_BREP('Body5',#749);
#24=MANIFOLD_SOLID_BREP('Body6',#750);
#25=FACE_OUTER_BOUND('',#69,.T.);
#26=FACE_OUTER_BOUND('',#70,.T.);
#27=FACE_OUTER_BOUND('',#71,.T.);
#28=FACE_OUTER_BOUND('',#72,.T.);
#29=FACE_OUTER_BOUND('',#73,.T.);
#30=FACE_OUTER_BOUND('',#74,.T.);
#31=FACE_OUTER_BOUND('',#75,.T.);
#32=FACE_OUTER_BOUND('',#76,.T.);
#33=FACE_OUTER_BOUND('',#77,.T.);
#34=FACE_OUTER_BOUND('',#78,.T.);
#35=FACE_OUTER_BOUND('',#79,.T.);
#36=FACE_OUTER_BOUND('',#80,.T.);
#37=FACE_OUTER_BOUND('',#81,.T.);
#38=FACE_OUTER_BOUND('',#82,.T.);
#39=FACE_OUTER_BOUND('',#83,.T.);
#40=FACE_OUTER_BOUND('',#84,.T.);
#41=FACE_OUTER_BOUND('',#85,.T.);
#42=FACE_OUTER_BOUND('',#86,.T.);
#43=FACE_OUTER_BOUND('',#87,.T.);
#44=FACE_OUTER_BOUND('',#88,.T.);
#45=FACE_OUTER_BOUND('',#89,.T.);
#46=FACE_OUTER_BOUND('',#90,.T.);
#47=FACE_OUTER_BOUND('',#91,.T.);
#48=FACE_OUTER_BOUND('',#92,.T.);
#49=FACE_OUTER_BOUND('',#93,.T.);
#50=FACE_OUTER_BOUND('',#94,.T.);
#51=FACE_OUTER_BOUND('',#95,.T.);
#52=FACE_OUTER_BOUND('',#96,.T.);
#53=FACE_OUTER_BOUND('',#97,.T.);
#54=FACE_OUTER_BOUND('',#98,.T.);
#55=FACE_OUTER_BOUND('',#99,.T.);
#56=FACE_OUTER_BOUND('',#100,.T.);
#57=FACE_OUTER_BOUND('',#101,.T.);
#58=FACE_OUTER_BOUND('',#102,.T.);
#59=FACE_OUTER_BOUND('',#103,.T.);
#60=FACE_OUTER_BOUND('',#104,.T.);
#61=FACE_OUTER_BOUND('',#105,.T.);
#62=FACE_OUTER_BOUND('',#106,.T.);
#63=FACE_OUTER_BOUND('',#107,.T.);
#64=FACE_OUTER_BOUND('',#108,.T.);
#65=FACE_OUTER_BOUND('',#109,.T.);
#66=FACE_OUTER_BOUND('',#110,.T.);
#67=FACE_OUTER_BOUND('',#111,.T.);
#68=FACE_OUTER_BOUND('',#112,.T.);
#69=EDGE_LOOP('',(#465,#466,#467,#468));
#70=EDGE_LOOP('',(#469,#470,#471,#472));
#71=EDGE_LOOP('',(#473,#474,#475,#476));
#72=EDGE_LOOP('',(#477,#478,#479,#480));
#73=EDGE_LOOP('',(#481,#482,#483,#484));
#74=EDGE_LOOP('',(#485,#486,#487,#488));
#75=EDGE_LOOP('',(#489,#490,#491,#492,#493,#494,#495,#496));
#76=EDGE_LOOP('',(#497,#498,#499,#500,#501,#502,#503,#504));
#77=EDGE_LOOP('',(#505,#506,#507,#508));
#78=EDGE_LOOP('',(#509,#510,#511,#512));
#79=EDGE_LOOP('',(#513,#514,#515,#516));
#80=EDGE_LOOP('',(#517,#518,#519,#520));
#81=EDGE_LOOP('',(#521,#522,#523,#524));
#82=EDGE_LOOP('',(#525,#526,#527,#528));
#83=EDGE_LOOP('',(#529,#530,#531,#532));
#84=EDGE_LOOP('',(#533,#534,#535,#536));
#85=EDGE_LOOP('',(#537,#538,#539,#540));
#86=EDGE_LOOP('',(#541,#542,#543,#544));
#87=EDGE_LOOP('',(#545,#546,#547,#548));
#88=EDGE_LOOP('',(#549,#550,#551,#552));
#89=EDGE_LOOP('',(#553,#554,#555,#556));
#90=EDGE_LOOP('',(#557,#558,#559,#560));
#91=EDGE_LOOP('',(#561,#562,#563,#564));
#92=EDGE_LOOP('',(#565,#566,#567,#568));
#93=EDGE_LOOP('',(#569,#570,#571,#572));
#94=EDGE_LOOP('',(#573,#574,#575,#576));
#95=EDGE_LOOP('',(#577,#578,#579,#580));
#96=EDGE_LOOP('',(#581,#582,#583,#584));
#97=EDGE_LOOP('',(#585,#586,#587,#588,#589,#590));
#98=EDGE_LOOP('',(#591,#592,#593,#594,#595,#596));
#99=EDGE_LOOP('',(#597,#598,#599,#600));
#100=EDGE_LOOP('',(#601,#602,#603,#604));
#101=EDGE_LOOP('',(#605,#606,#607,#608));
#102=EDGE_LOOP('',(#609,#610,#611,#612));
#103=EDGE_LOOP('',(#613,#614,#615,#616));
#104=EDGE_LOOP('',(#617,#618,#619,#620));
#105=EDGE_LOOP('',(#621,#622,#623,#624,#625,#626));
#106=EDGE_LOOP('',(#627,#628,#629,#630,#631,#632));
#107=EDGE_LOOP('',(#633,#634,#635,#636));
#108=EDGE_LOOP('',(#637,#638,#639,#640));
#109=EDGE_LOOP('',(#641,#642,#643,#644));
#110=EDGE_LOOP('',(#645,#646,#647,#648));
#111=EDGE_LOOP('',(#649,#650,#651,#652));
#112=EDGE_LOOP('',(#653,#654,#655,#656));
#113=LINE('',#998,#209);
#114=LINE('',#1000,#210);
#115=LINE('',#1002,#211);
#116=LINE('',#1003,#212);
#117=LINE('',#1006,#213);
#118=LINE('',#1008,#214);
#119=LINE('',#1009,#215);
#120=LINE('',#1013,#216);
#121=LINE('',#1015,#217);
#122=LINE('',#1017,#218);
#123=LINE('',#1018,#219);
#124=LINE('',#1021,#220);
#125=LINE('',#1023,#221);
#126=LINE('',#1024,#222);
#127=LINE('',#1027,#223);
#128=LINE('',#1029,#224);
#129=LINE('',#1030,#225);
#130=LINE('',#1033,#226);
#131=LINE('',#1035,#227);
#132=LINE('',#1036,#228);
#133=LINE('',#1038,#229);
#134=LINE('',#1039,#230);
#135=LINE('',#1041,#231);
#136=LINE('',#1042,#232);
#137=LINE('',#1048,#233);
#138=LINE('',#1050,#234);
#139=LINE('',#1052,#235);
#140=LINE('',#1053,#236);
#141=LINE('',#1056,#237);
#142=LINE('',#1058,#238);
#143=LINE('',#1059,#239);
#144=LINE('',#1062,#240);
#145=LINE('',#1064,#241);
#146=LINE('',#1065,#242);
#147=LINE('',#1067,#243);
#148=LINE('',#1068,#244);
#149=LINE('',#1074,#245);
#150=LINE('',#1076,#246);
#151=LINE('',#1078,#247);
#152=LINE('',#1079,#248);
#153=LINE('',#1082,#249);
#154=LINE('',#1084,#250);
#155=LINE('',#1085,#251);
#156=LINE('',#1088,#252);
#157=LINE('',#1090,#253);
#158=LINE('',#1091,#254);
#159=LINE('',#1093,#255);
#160=LINE('',#1094,#256);
#161=LINE('',#1100,#257);
#162=LINE('',#1102,#258);
#163=LINE('',#1104,#259);
#164=LINE('',#1105,#260);
#165=LINE('',#1108,#261);
#166=LINE('',#1110,#262);
#167=LINE('',#1111,#263);
#168=LINE('',#1114,#264);
#169=LINE('',#1116,#265);
#170=LINE('',#1117,#266);
#171=LINE('',#1120,#267);
#172=LINE('',#1122,#268);
#173=LINE('',#1123,#269);
#174=LINE('',#1126,#270);
#175=LINE('',#1128,#271);
#176=LINE('',#1129,#272);
#177=LINE('',#1131,#273);
#178=LINE('',#1132,#274);
#179=LINE('',#1138,#275);
#180=LINE('',#1140,#276);
#181=LINE('',#1142,#277);
#182=LINE('',#1143,#278);
#183=LINE('',#1146,#279);
#184=LINE('',#1148,#280);
#185=LINE('',#1149,#281);
#186=LINE('',#1152,#282);
#187=LINE('',#1154,#283);
#188=LINE('',#1155,#284);
#189=LINE('',#1158,#285);
#190=LINE('',#1160,#286);
#191=LINE('',#1161,#287);
#192=LINE('',#1164,#288);
#193=LINE('',#1166,#289);
#194=LINE('',#1167,#290);
#195=LINE('',#1169,#291);
#196=LINE('',#1170,#292);
#197=LINE('',#1176,#293);
#198=LINE('',#1178,#294);
#199=LINE('',#1180,#295);
#200=LINE('',#1181,#296);
#201=LINE('',#1184,#297);
#202=LINE('',#1186,#298);
#203=LINE('',#1187,#299);
#204=LINE('',#1190,#300);
#205=LINE('',#1192,#301);
#206=LINE('',#1193,#302);
#207=LINE('',#1195,#303);
#208=LINE('',#1196,#304);
#209=VECTOR('',#812,10.);
#210=VECTOR('',#813,10.);
#211=VECTOR('',#814,10.);
#212=VECTOR('',#815,10.);
#213=VECTOR('',#818,10.);
#214=VECTOR('',#819,10.);
#215=VECTOR('',#820,10.);
#216=VECTOR('',#823,10.);
#217=VECTOR('',#824,10.);
#218=VECTOR('',#825,10.);
#219=VECTOR('',#826,10.);
#220=VECTOR('',#829,10.);
#221=VECTOR('',#830,10.);
#222=VECTOR('',#831,10.);
#223=VECTOR('',#834,10.);
#224=VECTOR('',#835,10.);
#225=VECTOR('',#836,10.);
#226=VECTOR('',#839,10.);
#227=VECTOR('',#840,10.);
#228=VECTOR('',#841,10.);
#229=VECTOR('',#844,10.);
#230=VECTOR('',#845,10.);
#231=VECTOR('',#848,10.);
#232=VECTOR('',#849,10.);
#233=VECTOR('',#856,10.);
#234=VECTOR('',#857,10.);
#235=VECTOR('',#858,10.);
#236=VECTOR('',#859,10.);
#237=VECTOR('',#862,10.);
#238=VECTOR('',#863,10.);
#239=VECTOR('',#864,10.);
#240=VECTOR('',#867,10.);
#241=VECTOR('',#868,10.);
#242=VECTOR('',#869,10.);
#243=VECTOR('',#872,10.);
#244=VECTOR('',#873,10.);
#245=VECTOR('',#880,10.);
#246=VECTOR('',#881,10.);
#247=VECTOR('',#882,10.);
#248=VECTOR('',#883,10.);
#249=VECTOR('',#886,10.);
#250=VECTOR('',#887,10.);
#251=VECTOR('',#888,10.);
#252=VECTOR('',#891,10.);
#253=VECTOR('',#892,10.);
#254=VECTOR('',#893,10.);
#255=VECTOR('',#896,10.);
#256=VECTOR('',#897,10.);
#257=VECTOR('',#904,10.);
#258=VECTOR('',#905,10.);
#259=VECTOR('',#906,10.);
#260=VECTOR('',#907,10.);
#261=VECTOR('',#910,10.);
#262=VECTOR('',#911,10.);
#263=VECTOR('',#912,10.);
#264=VECTOR('',#915,10.);
#265=VECTOR('',#916,10.);
#266=VECTOR('',#917,10.);
#267=VECTOR('',#920,10.);
#268=VECTOR('',#921,10.);
#269=VECTOR('',#922,10.);
#270=VECTOR('',#925,10.);
#271=VECTOR('',#926,10.);
#272=VECTOR('',#927,10.);
#273=VECTOR('',#930,10.);
#274=VECTOR('',#931,10.);
#275=VECTOR('',#938,10.);
#276=VECTOR('',#939,10.);
#277=VECTOR('',#940,10.);
#278=VECTOR('',#941,10.);
#279=VECTOR('',#944,10.);
#280=VECTOR('',#945,10.);
#281=VECTOR('',#946,10.);
#282=VECTOR('',#949,10.);
#283=VECTOR('',#950,10.);
#284=VECTOR('',#951,10.);
#285=VECTOR('',#954,10.);
#286=VECTOR('',#955,10.);
#287=VECTOR('',#956,10.);
#288=VECTOR('',#959,10.);
#289=VECTOR('',#960,10.);
#290=VECTOR('',#961,10.);
#291=VECTOR('',#964,10.);
#292=VECTOR('',#965,10.);
#293=VECTOR('',#972,10.);
#294=VECTOR('',#973,10.);
#295=VECTOR('',#974,10.);
#296=VECTOR('',#975,10.);
#297=VECTOR('',#978,10.);
#298=VECTOR('',#979,10.);
#299=VECTOR('',#980,10.);
#300=VECTOR('',#983,10.);
#301=VECTOR('',#984,10.);
#302=VECTOR('',#985,10.);
#303=VECTOR('',#988,10.);
#304=VECTOR('',#989,10.);
#305=VERTEX_POINT('',#996);
#306=VERTEX_POINT('',#997);
#307=VERTEX_POINT('',#999);
#308=VERTEX_POINT('',#1001);
#309=VERTEX_POINT('',#1005);
#310=VERTEX_POINT('',#1007);
#311=VERTEX_POINT('',#1011);
#312=VERTEX_POINT('',#1012);
#313=VERTEX_POINT('',#1014);
#314=VERTEX_POINT('',#1016);
#315=VERTEX_POINT('',#1020);
#316=VERTEX_POINT('',#1022);
#317=VERTEX_POINT('',#1026);
#318=VERTEX_POINT('',#1028);
#319=VERTEX_POINT('',#1032);
#320=VERTEX_POINT('',#1034);
#321=VERTEX_POINT('',#1046);
#322=VERTEX_POINT('',#1047);
#323=VERTEX_POINT('',#1049);
#324=VERTEX_POINT('',#1051);
#325=VERTEX_POINT('',#1055);
#326=VERTEX_POINT('',#1057);
#327=VERTEX_POINT('',#1061);
#328=VERTEX_POINT('',#1063);
#329=VERTEX_POINT('',#1072);
#330=VERTEX_POINT('',#1073);
#331=VERTEX_POINT('',#1075);
#332=VERTEX_POINT('',#1077);
#333=VERTEX_POINT('',#1081);
#334=VERTEX_POINT('',#1083);
#335=VERTEX_POINT('',#1087);
#336=VERTEX_POINT('',#1089);
#337=VERTEX_POINT('',#1098);
#338=VERTEX_POINT('',#1099);
#339=VERTEX_POINT('',#1101);
#340=VERTEX_POINT('',#1103);
#341=VERTEX_POINT('',#1107);
#342=VERTEX_POINT('',#1109);
#343=VERTEX_POINT('',#1113);
#344=VERTEX_POINT('',#1115);
#345=VERTEX_POINT('',#1119);
#346=VERTEX_POINT('',#1121);
#347=VERTEX_POINT('',#1125);
#348=VERTEX_POINT('',#1127);
#349=VERTEX_POINT('',#1136);
#350=VERTEX_POINT('',#1137);
#351=VERTEX_POINT('',#1139);
#352=VERTEX_POINT('',#1141);
#353=VERTEX_POINT('',#1145);
#354=VERTEX_POINT('',#1147);
#355=VERTEX_POINT('',#1151);
#356=VERTEX_POINT('',#1153);
#357=VERTEX_POINT('',#1157);
#358=VERTEX_POINT('',#1159);
#359=VERTEX_POINT('',#1163);
#360=VERTEX_POINT('',#1165);
#361=VERTEX_POINT('',#1174);
#362=VERTEX_POINT('',#1175);
#363=VERTEX_POINT('',#1177);
#364=VERTEX_POINT('',#1179);
#365=VERTEX_POINT('',#1183);
#366=VERTEX_POINT('',#1185);
#367=VERTEX_POINT('',#1189);
#368=VERTEX_POINT('',#1191);
#369=EDGE_CURVE('',#305,#306,#113,.T.);
#370=EDGE_CURVE('',#305,#307,#114,.T.);
#371=EDGE_CURVE('',#308,#307,#115,.T.);
#372=EDGE_CURVE('',#306,#308,#116,.T.);
#373=EDGE_CURVE('',#306,#309,#117,.T.);
#374=EDGE_CURVE('',#310,#308,#118,.T.);
#375=EDGE_CURVE('',#309,#310,#119,.T.);
#376=EDGE_CURVE('',#311,#312,#120,.T.);
#377=EDGE_CURVE('',#311,#313,#121,.T.);
#378=EDGE_CURVE('',#314,#313,#122,.T.);
#379=EDGE_CURVE('',#312,#314,#123,.T.);
#380=EDGE_CURVE('',#312,#315,#124,.T.);
#381=EDGE_CURVE('',#316,#314,#125,.T.);
#382=EDGE_CURVE('',#315,#316,#126,.T.);
#383=EDGE_CURVE('',#315,#317,#127,.T.);
#384=EDGE_CURVE('',#318,#316,#128,.T.);
#385=EDGE_CURVE('',#317,#318,#129,.T.);
#386=EDGE_CURVE('',#305,#319,#130,.T.);
#387=EDGE_CURVE('',#319,#320,#131,.T.);
#388=EDGE_CURVE('',#307,#320,#132,.T.);
#389=EDGE_CURVE('',#320,#318,#133,.T.);
#390=EDGE_CURVE('',#313,#310,#134,.T.);
#391=EDGE_CURVE('',#319,#309,#135,.T.);
#392=EDGE_CURVE('',#317,#311,#136,.T.);
#393=EDGE_CURVE('',#321,#322,#137,.T.);
#394=EDGE_CURVE('',#321,#323,#138,.T.);
#395=EDGE_CURVE('',#324,#323,#139,.T.);
#396=EDGE_CURVE('',#322,#324,#140,.T.);
#397=EDGE_CURVE('',#322,#325,#141,.T.);
#398=EDGE_CURVE('',#326,#324,#142,.T.);
#399=EDGE_CURVE('',#325,#326,#143,.T.);
#400=EDGE_CURVE('',#325,#327,#144,.T.);
#401=EDGE_CURVE('',#328,#326,#145,.T.);
#402=EDGE_CURVE('',#327,#328,#146,.T.);
#403=EDGE_CURVE('',#327,#321,#147,.T.);
#404=EDGE_CURVE('',#323,#328,#148,.T.);
#405=EDGE_CURVE('',#329,#330,#149,.T.);
#406=EDGE_CURVE('',#329,#331,#150,.T.);
#407=EDGE_CURVE('',#332,#331,#151,.T.);
#408=EDGE_CURVE('',#330,#332,#152,.T.);
#409=EDGE_CURVE('',#330,#333,#153,.T.);
#410=EDGE_CURVE('',#334,#332,#154,.T.);
#411=EDGE_CURVE('',#333,#334,#155,.T.);
#412=EDGE_CURVE('',#333,#335,#156,.T.);
#413=EDGE_CURVE('',#336,#334,#157,.T.);
#414=EDGE_CURVE('',#335,#336,#158,.T.);
#415=EDGE_CURVE('',#335,#329,#159,.T.);
#416=EDGE_CURVE('',#331,#336,#160,.T.);
#417=EDGE_CURVE('',#337,#338,#161,.T.);
#418=EDGE_CURVE('',#338,#339,#162,.T.);
#419=EDGE_CURVE('',#340,#339,#163,.T.);
#420=EDGE_CURVE('',#337,#340,#164,.T.);
#421=EDGE_CURVE('',#341,#337,#165,.T.);
#422=EDGE_CURVE('',#342,#340,#166,.T.);
#423=EDGE_CURVE('',#341,#342,#167,.T.);
#424=EDGE_CURVE('',#343,#341,#168,.T.);
#425=EDGE_CURVE('',#344,#342,#169,.T.);
#426=EDGE_CURVE('',#343,#344,#170,.T.);
#427=EDGE_CURVE('',#345,#343,#171,.T.);
#428=EDGE_CURVE('',#346,#344,#172,.T.);
#429=EDGE_CURVE('',#345,#346,#173,.T.);
#430=EDGE_CURVE('',#347,#345,#174,.T.);
#431=EDGE_CURVE('',#348,#346,#175,.T.);
#432=EDGE_CURVE('',#347,#348,#176,.T.);
#433=EDGE_CURVE('',#338,#347,#177,.T.);
#434=EDGE_CURVE('',#339,#348,#178,.T.);
#435=EDGE_CURVE('',#349,#350,#179,.T.);
#436=EDGE_CURVE('',#349,#351,#180,.T.);
#437=EDGE_CURVE('',#352,#351,#181,.T.);
#438=EDGE_CURVE('',#350,#352,#182,.T.);
#439=EDGE_CURVE('',#350,#353,#183,.T.);
#440=EDGE_CURVE('',#354,#352,#184,.T.);
#441=EDGE_CURVE('',#353,#354,#185,.T.);
#442=EDGE_CURVE('',#353,#355,#186,.T.);
#443=EDGE_CURVE('',#356,#354,#187,.T.);
#444=EDGE_CURVE('',#355,#356,#188,.T.);
#445=EDGE_CURVE('',#355,#357,#189,.T.);
#446=EDGE_CURVE('',#358,#356,#190,.T.);
#447=EDGE_CURVE('',#357,#358,#191,.T.);
#448=EDGE_CURVE('',#357,#359,#192,.T.);
#449=EDGE_CURVE('',#360,#358,#193,.T.);
#450=EDGE_CURVE('',#359,#360,#194,.T.);
#451=EDGE_CURVE('',#359,#349,#195,.T.);
#452=EDGE_CURVE('',#351,#360,#196,.T.);
#453=EDGE_CURVE('',#361,#362,#197,.T.);
#454=EDGE_CURVE('',#361,#363,#198,.T.);
#455=EDGE_CURVE('',#364,#363,#199,.T.);
#456=EDGE_CURVE('',#362,#364,#200,.T.);
#457=EDGE_CURVE('',#362,#365,#201,.T.);
#458=EDGE_CURVE('',#366,#364,#202,.T.);
#459=EDGE_CURVE('',#365,#366,#203,.T.);
#460=EDGE_CURVE('',#365,#367,#204,.T.);
#461=EDGE_CURVE('',#368,#366,#205,.T.);
#462=EDGE_CURVE('',#367,#368,#206,.T.);
#463=EDGE_CURVE('',#367,#361,#207,.T.);
#464=EDGE_CURVE('',#363,#368,#208,.T.);
#465=ORIENTED_EDGE('',*,*,#369,.F.);
#466=ORIENTED_EDGE('',*,*,#370,.T.);
#467=ORIENTED_EDGE('',*,*,#371,.F.);
#468=ORIENTED_EDGE('',*,*,#372,.F.);
#469=ORIENTED_EDGE('',*,*,#373,.F.);
#470=ORIENTED_EDGE('',*,*,#372,.T.);
#471=ORIENTED_EDGE('',*,*,#374,.F.);
#472=ORIENTED_EDGE('',*,*,#375,.F.);
#473=ORIENTED_EDGE('',*,*,#376,.F.);
#474=ORIENTED_EDGE('',*,*,#377,.T.);
#475=ORIENTED_EDGE('',*,*,#378,.F.);
#476=ORIENTED_EDGE('',*,*,#379,.F.);
#477=ORIENTED_EDGE('',*,*,#380,.F.);
#478=ORIENTED_EDGE('',*,*,#379,.T.);
#479=ORIENTED_EDGE('',*,*,#381,.F.);
#480=ORIENTED_EDGE('',*,*,#382,.F.);
#481=ORIENTED_EDGE('',*,*,#383,.F.);
#482=ORIENTED_EDGE('',*,*,#382,.T.);
#483=ORIENTED_EDGE('',*,*,#384,.F.);
#484=ORIENTED_EDGE('',*,*,#385,.F.);
#485=ORIENTED_EDGE('',*,*,#386,.T.);
#486=ORIENTED_EDGE('',*,*,#387,.T.);
#487=ORIENTED_EDGE('',*,*,#388,.F.);
#488=ORIENTED_EDGE('',*,*,#370,.F.);
#489=ORIENTED_EDGE('',*,*,#388,.T.);
#490=ORIENTED_EDGE('',*,*,#389,.T.);
#491=ORIENTED_EDGE('',*,*,#384,.T.);
#492=ORIENTED_EDGE('',*,*,#381,.T.);
#493=ORIENTED_EDGE('',*,*,#378,.T.);
#494=ORIENTED_EDGE('',*,*,#390,.T.);
#495=ORIENTED_EDGE('',*,*,#374,.T.);
#496=ORIENTED_EDGE('',*,*,#371,.T.);
#497=ORIENTED_EDGE('',*,*,#391,.T.);
#498=ORIENTED_EDGE('',*,*,#375,.T.);
#499=ORIENTED_EDGE('',*,*,#390,.F.);
#500=ORIENTED_EDGE('',*,*,#377,.F.);
#501=ORIENTED_EDGE('',*,*,#392,.F.);
#502=ORIENTED_EDGE('',*,*,#385,.T.);
#503=ORIENTED_EDGE('',*,*,#389,.F.);
#504=ORIENTED_EDGE('',*,*,#387,.F.);
#505=ORIENTED_EDGE('',*,*,#376,.T.);
#506=ORIENTED_EDGE('',*,*,#380,.T.);
#507=ORIENTED_EDGE('',*,*,#383,.T.);
#508=ORIENTED_EDGE('',*,*,#392,.T.);
#509=ORIENTED_EDGE('',*,*,#391,.F.);
#510=ORIENTED_EDGE('',*,*,#386,.F.);
#511=ORIENTED_EDGE('',*,*,#369,.T.);
#512=ORIENTED_EDGE('',*,*,#373,.T.);
#513=ORIENTED_EDGE('',*,*,#393,.F.);
#514=ORIENTED_EDGE('',*,*,#394,.T.);
#515=ORIENTED_EDGE('',*,*,#395,.F.);
#516=ORIENTED_EDGE('',*,*,#396,.F.);
#517=ORIENTED_EDGE('',*,*,#397,.F.);
#518=ORIENTED_EDGE('',*,*,#396,.T.);
#519=ORIENTED_EDGE('',*,*,#398,.F.);
#520=ORIENTED_EDGE('',*,*,#399,.F.);
#521=ORIENTED_EDGE('',*,*,#400,.F.);
#522=ORIENTED_EDGE('',*,*,#399,.T.);
#523=ORIENTED_EDGE('',*,*,#401,.F.);
#524=ORIENTED_EDGE('',*,*,#402,.F.);
#525=ORIENTED_EDGE('',*,*,#403,.F.);
#526=ORIENTED_EDGE('',*,*,#402,.T.);
#527=ORIENTED_EDGE('',*,*,#404,.F.);
#528=ORIENTED_EDGE('',*,*,#394,.F.);
#529=ORIENTED_EDGE('',*,*,#404,.T.);
#530=ORIENTED_EDGE('',*,*,#401,.T.);
#531=ORIENTED_EDGE('',*,*,#398,.T.);
#532=ORIENTED_EDGE('',*,*,#395,.T.);
#533=ORIENTED_EDGE('',*,*,#403,.T.);
#534=ORIENTED_EDGE('',*,*,#393,.T.);
#535=ORIENTED_EDGE('',*,*,#397,.T.);
#536=ORIENTED_EDGE('',*,*,#400,.T.);
#537=ORIENTED_EDGE('',*,*,#405,.F.);
#538=ORIENTED_EDGE('',*,*,#406,.T.);
#539=ORIENTED_EDGE('',*,*,#407,.F.);
#540=ORIENTED_EDGE('',*,*,#408,.F.);
#541=ORIENTED_EDGE('',*,*,#409,.F.);
#542=ORIENTED_EDGE('',*,*,#408,.T.);
#543=ORIENTED_EDGE('',*,*,#410,.F.);
#544=ORIENTED_EDGE('',*,*,#411,.F.);
#545=ORIENTED_EDGE('',*,*,#412,.F.);
#546=ORIENTED_EDGE('',*,*,#411,.T.);
#547=ORIENTED_EDGE('',*,*,#413,.F.);
#548=ORIENTED_EDGE('',*,*,#414,.F.);
#549=ORIENTED_EDGE('',*,*,#415,.F.);
#550=ORIENTED_EDGE('',*,*,#414,.T.);
#551=ORIENTED_EDGE('',*,*,#416,.F.);
#552=ORIENTED_EDGE('',*,*,#406,.F.);
#553=ORIENTED_EDGE('',*,*,#416,.T.);
#554=ORIENTED_EDGE('',*,*,#413,.T.);
#555=ORIENTED_EDGE('',*,*,#410,.T.);
#556=ORIENTED_EDGE('',*,*,#407,.T.);
#557=ORIENTED_EDGE('',*,*,#415,.T.);
#558=ORIENTED_EDGE('',*,*,#405,.T.);
#559=ORIENTED_EDGE('',*,*,#409,.T.);
#560=ORIENTED_EDGE('',*,*,#412,.T.);
#561=ORIENTED_EDGE('',*,*,#417,.T.);
#562=ORIENTED_EDGE('',*,*,#418,.T.);
#563=ORIENTED_EDGE('',*,*,#419,.F.);
#564=ORIENTED_EDGE('',*,*,#420,.F.);
#565=ORIENTED_EDGE('',*,*,#421,.T.);
#566=ORIENTED_EDGE('',*,*,#420,.T.);
#567=ORIENTED_EDGE('',*,*,#422,.F.);
#568=ORIENTED_EDGE('',*,*,#423,.F.);
#569=ORIENTED_EDGE('',*,*,#424,.T.);
#570=ORIENTED_EDGE('',*,*,#423,.T.);
#571=ORIENTED_EDGE('',*,*,#425,.F.);
#572=ORIENTED_EDGE('',*,*,#426,.F.);
#573=ORIENTED_EDGE('',*,*,#427,.T.);
#574=ORIENTED_EDGE('',*,*,#426,.T.);
#575=ORIENTED_EDGE('',*,*,#428,.F.);
#576=ORIENTED_EDGE('',*,*,#429,.F.);
#577=ORIENTED_EDGE('',*,*,#430,.T.);
#578=ORIENTED_EDGE('',*,*,#429,.T.);
#579=ORIENTED_EDGE('',*,*,#431,.F.);
#580=ORIENTED_EDGE('',*,*,#432,.F.);
#581=ORIENTED_EDGE('',*,*,#433,.T.);
#582=ORIENTED_EDGE('',*,*,#432,.T.);
#583=ORIENTED_EDGE('',*,*,#434,.F.);
#584=ORIENTED_EDGE('',*,*,#418,.F.);
#585=ORIENTED_EDGE('',*,*,#434,.T.);
#586=ORIENTED_EDGE('',*,*,#431,.T.);
#587=ORIENTED_EDGE('',*,*,#428,.T.);
#588=ORIENTED_EDGE('',*,*,#425,.T.);
#589=ORIENTED_EDGE('',*,*,#422,.T.);
#590=ORIENTED_EDGE('',*,*,#419,.T.);
#591=ORIENTED_EDGE('',*,*,#433,.F.);
#592=ORIENTED_EDGE('',*,*,#417,.F.);
#593=ORIENTED_EDGE('',*,*,#421,.F.);
#594=ORIENTED_EDGE('',*,*,#424,.F.);
#595=ORIENTED_EDGE('',*,*,#427,.F.);
#596=ORIENTED_EDGE('',*,*,#430,.F.);
#597=ORIENTED_EDGE('',*,*,#435,.F.);
#598=ORIENTED_EDGE('',*,*,#436,.T.);
#599=ORIENTED_EDGE('',*,*,#437,.F.);
#600=ORIENTED_EDGE('',*,*,#438,.F.);
#601=ORIENTED_EDGE('',*,*,#439,.F.);
#602=ORIENTED_EDGE('',*,*,#438,.T.);
#603=ORIENTED_EDGE('',*,*,#440,.F.);
#604=ORIENTED_EDGE('',*,*,#441,.F.);
#605=ORIENTED_EDGE('',*,*,#442,.F.);
#606=ORIENTED_EDGE('',*,*,#441,.T.);
#607=ORIENTED_EDGE('',*,*,#443,.F.);
#608=ORIENTED_EDGE('',*,*,#444,.F.);
#609=ORIENTED_EDGE('',*,*,#445,.F.);
#610=ORIENTED_EDGE('',*,*,#444,.T.);
#611=ORIENTED_EDGE('',*,*,#446,.F.);
#612=ORIENTED_EDGE('',*,*,#447,.F.);
#613=ORIENTED_EDGE('',*,*,#448,.F.);
#614=ORIENTED_EDGE('',*,*,#447,.T.);
#615=ORIENTED_EDGE('',*,*,#449,.F.);
#616=ORIENTED_EDGE('',*,*,#450,.F.);
#617=ORIENTED_EDGE('',*,*,#451,.F.);
#618=ORIENTED_EDGE('',*,*,#450,.T.);
#619=ORIENTED_EDGE('',*,*,#452,.F.);
#620=ORIENTED_EDGE('',*,*,#436,.F.);
#621=ORIENTED_EDGE('',*,*,#452,.T.);
#622=ORIENTED_EDGE('',*,*,#449,.T.);
#623=ORIENTED_EDGE('',*,*,#446,.T.);
#624=ORIENTED_EDGE('',*,*,#443,.T.);
#625=ORIENTED_EDGE('',*,*,#440,.T.);
#626=ORIENTED_EDGE('',*,*,#437,.T.);
#627=ORIENTED_EDGE('',*,*,#451,.T.);
#628=ORIENTED_EDGE('',*,*,#435,.T.);
#629=ORIENTED_EDGE('',*,*,#439,.T.);
#630=ORIENTED_EDGE('',*,*,#442,.T.);
#631=ORIENTED_EDGE('',*,*,#445,.T.);
#632=ORIENTED_EDGE('',*,*,#448,.T.);
#633=ORIENTED_EDGE('',*,*,#453,.F.);
#634=ORIENTED_EDGE('',*,*,#454,.T.);
#635=ORIENTED_EDGE('',*,*,#455,.F.);
#636=ORIENTED_EDGE('',*,*,#456,.F.);
#637=ORIENTED_EDGE('',*,*,#457,.F.);
#638=ORIENTED_EDGE('',*,*,#456,.T.);
#639=ORIENTED_EDGE('',*,*,#458,.F.);
#640=ORIENTED_EDGE('',*,*,#459,.F.);
#641=ORIENTED_EDGE('',*,*,#460,.F.);
#642=ORIENTED_EDGE('',*,*,#459,.T.);
#643=ORIENTED_EDGE('',*,*,#461,.F.);
#644=ORIENTED_EDGE('',*,*,#462,.F.);
#645=ORIENTED_EDGE('',*,*,#463,.F.);
#646=ORIENTED_EDGE('',*,*,#462,.T.);
#647=ORIENTED_EDGE('',*,*,#464,.F.);
#648=ORIENTED_EDGE('',*,*,#454,.F.);
#649=ORIENTED_EDGE('',*,*,#463,.T.);
#650=ORIENTED_EDGE('',*,*,#453,.T.);
#651=ORIENTED_EDGE('',*,*,#457,.T.);
#652=ORIENTED_EDGE('',*,*,#460,.T.);
#653=ORIENTED_EDGE('',*,*,#464,.T.);
#654=ORIENTED_EDGE('',*,*,#461,.T.);
#655=ORIENTED_EDGE('',*,*,#458,.T.);
#656=ORIENTED_EDGE('',*,*,#455,.T.);
#657=PLANE('',#764);
#658=PLANE('',#765);
#659=PLANE('',#766);
#660=PLANE('',#767);
#661=PLANE('',#768);
#662=PLANE('',#769);
#663=PLANE('',#770);
#664=PLANE('',#771);
#665=PLANE('',#772);
#666=PLANE('',#773);
#667=PLANE('',#774);
#668=PLANE('',#775);
#669=PLANE('',#776);
#670=PLANE('',#777);
#671=PLANE('',#778);
#672=PLANE('',#779);
#673=PLANE('',#780);
#674=PLANE('',#781);
#675=PLANE('',#782);
#676=PLANE('',#783);
#677=PLANE('',#784);
#678=PLANE('',#785);
#679=PLANE('',#786);
#680=PLANE('',#787);
#681=PLANE('',#788);
#682=PLANE('',#789);
#683=PLANE('',#790);
#684=PLANE('',#791);
#685=PLANE('',#792);
#686=PLANE('',#793);
#687=PLANE('',#794);
#688=PLANE('',#795);
#689=PLANE('',#796);
#690=PLANE('',#797);
#691=PLANE('',#798);
#692=PLANE('',#799);
#693=PLANE('',#800);
#694=PLANE('',#801);
#695=PLANE('',#802);
#696=PLANE('',#803);
#697=PLANE('',#804);
#698=PLANE('',#805);
#699=PLANE('',#806);
#700=PLANE('',#807);
#701=ADVANCED_FACE('',(#25),#657,.T.);
#702=ADVANCED_FACE('',(#26),#658,.T.);
#703=ADVANCED_FACE('',(#27),#659,.T.);
#704=ADVANCED_FACE('',(#28),#660,.T.);
#705=ADVANCED_FACE('',(#29),#661,.T.);
#706=ADVANCED_FACE('',(#30),#662,.T.);
#707=ADVANCED_FACE('',(#31),#663,.T.);
#708=ADVANCED_FACE('',(#32),#664,.T.);
#709=ADVANCED_FACE('',(#33),#665,.T.);
#710=ADVANCED_FACE('',(#34),#666,.F.);
#711=ADVANCED_FACE('',(#35),#667,.T.);
#712=ADVANCED_FACE('',(#36),#668,.T.);
#713=ADVANCED_FACE('',(#37),#669,.T.);
#714=ADVANCED_FACE('',(#38),#670,.T.);
#715=ADVANCED_FACE('',(#39),#671,.T.);
#716=ADVANCED_FACE('',(#40),#672,.F.);
#717=ADVANCED_FACE('',(#41),#673,.T.);
#718=ADVANCED_FACE('',(#42),#674,.T.);
#719=ADVANCED_FACE('',(#43),#675,.T.);
#720=ADVANCED_FACE('',(#44),#676,.T.);
#721=ADVANCED_FACE('',(#45),#677,.T.);
#722=ADVANCED_FACE('',(#46),#678,.F.);
#723=ADVANCED_FACE('',(#47),#679,.T.);
#724=ADVANCED_FACE('',(#48),#680,.T.);
#725=ADVANCED_FACE('',(#49),#681,.T.);
#726=ADVANCED_FACE('',(#50),#682,.T.);
#727=ADVANCED_FACE('',(#51),#683,.T.);
#728=ADVANCED_FACE('',(#52),#684,.T.);
#729=ADVANCED_FACE('',(#53),#685,.T.);
#730=ADVANCED_FACE('',(#54),#686,.F.);
#731=ADVANCED_FACE('',(#55),#687,.T.);
#732=ADVANCED_FACE('',(#56),#688,.T.);
#733=ADVANCED_FACE('',(#57),#689,.T.);
#734=ADVANCED_FACE('',(#58),#690,.T.);
#735=ADVANCED_FACE('',(#59),#691,.T.);
#736=ADVANCED_FACE('',(#60),#692,.T.);
#737=ADVANCED_FACE('',(#61),#693,.T.);
#738=ADVANCED_FACE('',(#62),#694,.F.);
#739=ADVANCED_FACE('',(#63),#695,.T.);
#740=ADVANCED_FACE('',(#64),#696,.T.);
#741=ADVANCED_FACE('',(#65),#697,.T.);
#742=ADVANCED_FACE('',(#66),#698,.T.);
#743=ADVANCED_FACE('',(#67),#699,.T.);
#744=ADVANCED_FACE('',(#68),#700,.T.);
#745=CLOSED_SHELL('',(#701,#702,#703,#704,#705,#706,#707,#708,#709,#710));
#746=CLOSED_SHELL('',(#711,#712,#713,#714,#715,#716));
#747=CLOSED_SHELL('',(#717,#718,#719,#720,#721,#722));
#748=CLOSED_SHELL('',(#723,#724,#725,#726,#727,#728,#729,#730));
#749=CLOSED_SHELL('',(#731,#732,#733,#734,#735,#736,#737,#738));
#750=CLOSED_SHELL('',(#739,#740,#741,#742,#743,#744));
#751=DERIVED_UNIT_ELEMENT(#753,1.);
#752=DERIVED_UNIT_ELEMENT(#1204,-3.);
#753=(
MASS_UNIT()
NAMED_UNIT(*)
SI_UNIT(.KILO.,.GRAM.)
);
#754=DERIVED_UNIT((#751,#752));
#755=MEASURE_REPRESENTATION_ITEM('density measure',
POSITIVE_RATIO_MEASURE(7850.),#754);
#756=PROPERTY_DEFINITION_REPRESENTATION(#761,#758);
#757=PROPERTY_DEFINITION_REPRESENTATION(#762,#759);
#758=REPRESENTATION('material name',(#760),#1201);
#759=REPRESENTATION('density',(#755),#1201);
#760=DESCRIPTIVE_REPRESENTATION_ITEM('Steel','Steel');
#761=PROPERTY_DEFINITION('material property','material name',#1211);
#762=PROPERTY_DEFINITION('material property','density of part',#1211);
#763=AXIS2_PLACEMENT_3D('',#994,#808,#809);
#764=AXIS2_PLACEMENT_3D('',#995,#810,#811);
#765=AXIS2_PLACEMENT_3D('',#1004,#816,#817);
#766=AXIS2_PLACEMENT_3D('',#1010,#821,#822);
#767=AXIS2_PLACEMENT_3D('',#1019,#827,#828);
#768=AXIS2_PLACEMENT_3D('',#1025,#832,#833);
#769=AXIS2_PLACEMENT_3D('',#1031,#837,#838);
#770=AXIS2_PLACEMENT_3D('',#1037,#842,#843);
#771=AXIS2_PLACEMENT_3D('',#1040,#846,#847);
#772=AXIS2_PLACEMENT_3D('',#1043,#850,#851);
#773=AXIS2_PLACEMENT_3D('',#1044,#852,#853);
#774=AXIS2_PLACEMENT_3D('',#1045,#854,#855);
#775=AXIS2_PLACEMENT_3D('',#1054,#860,#861);
#776=AXIS2_PLACEMENT_3D('',#1060,#865,#866);
#777=AXIS2_PLACEMENT_3D('',#1066,#870,#871);
#778=AXIS2_PLACEMENT_3D('',#1069,#874,#875);
#779=AXIS2_PLACEMENT_3D('',#1070,#876,#877);
#780=AXIS2_PLACEMENT_3D('',#1071,#878,#879);
#781=AXIS2_PLACEMENT_3D('',#1080,#884,#885);
#782=AXIS2_PLACEMENT_3D('',#1086,#889,#890);
#783=AXIS2_PLACEMENT_3D('',#1092,#894,#895);
#784=AXIS2_PLACEMENT_3D('',#1095,#898,#899);
#785=AXIS2_PLACEMENT_3D('',#1096,#900,#901);
#786=AXIS2_PLACEMENT_3D('',#1097,#902,#903);
#787=AXIS2_PLACEMENT_3D('',#1106,#908,#909);
#788=AXIS2_PLACEMENT_3D('',#1112,#913,#914);
#789=AXIS2_PLACEMENT_3D('',#1118,#918,#919);
#790=AXIS2_PLACEMENT_3D('',#1124,#923,#924);
#791=AXIS2_PLACEMENT_3D('',#1130,#928,#929);
#792=AXIS2_PLACEMENT_3D('',#1133,#932,#933);
#793=AXIS2_PLACEMENT_3D('',#1134,#934,#935);
#794=AXIS2_PLACEMENT_3D('',#1135,#936,#937);
#795=AXIS2_PLACEMENT_3D('',#1144,#942,#943);
#796=AXIS2_PLACEMENT_3D('',#1150,#947,#948);
#797=AXIS2_PLACEMENT_3D('',#1156,#952,#953);
#798=AXIS2_PLACEMENT_3D('',#1162,#957,#958);
#799=AXIS2_PLACEMENT_3D('',#1168,#962,#963);
#800=AXIS2_PLACEMENT_3D('',#1171,#966,#967);
#801=AXIS2_PLACEMENT_3D('',#1172,#968,#969);
#802=AXIS2_PLACEMENT_3D('',#1173,#970,#971);
#803=AXIS2_PLACEMENT_3D('',#1182,#976,#977);
#804=AXIS2_PLACEMENT_3D('',#1188,#981,#982);
#805=AXIS2_PLACEMENT_3D('',#1194,#986,#987);
#806=AXIS2_PLACEMENT_3D('',#1197,#990,#991);
#807=AXIS2_PLACEMENT_3D('',#1198,#992,#993);
#808=DIRECTION('axis',(0.,0.,1.));
#809=DIRECTION('refdir',(1.,0.,0.));
#810=DIRECTION('center_axis',(-1.,0.,0.));
#811=DIRECTION('ref_axis',(0.,-1.,0.));
#812=DIRECTION('',(0.,1.,0.));
#813=DIRECTION('',(0.,0.,1.));
#814=DIRECTION('',(0.,-1.,0.));
#815=DIRECTION('',(0.,0.,1.));
#816=DIRECTION('center_axis',(0.,1.,0.));
#817=DIRECTION('ref_axis',(-1.,0.,0.));
#818=DIRECTION('',(1.,0.,0.));
#819=DIRECTION('',(-1.,0.,0.));
#820=DIRECTION('',(0.,0.,1.));
#821=DIRECTION('center_axis',(0.,-1.,0.));
#822=DIRECTION('ref_axis',(1.,0.,0.));
#823=DIRECTION('',(-1.,0.,0.));
#824=DIRECTION('',(0.,0.,1.));
#825=DIRECTION('',(1.,0.,0.));
#826=DIRECTION('',(0.,0.,1.));
#827=DIRECTION('center_axis',(1.,0.,0.));
#828=DIRECTION('ref_axis',(0.,1.,0.));
#829=DIRECTION('',(0.,-1.,0.));
#830=DIRECTION('',(0.,1.,0.));
#831=DIRECTION('',(0.,0.,1.));
#832=DIRECTION('center_axis',(0.,1.,0.));
#833=DIRECTION('ref_axis',(-1.,0.,0.));
#834=DIRECTION('',(1.,0.,0.));
#835=DIRECTION('',(-1.,0.,0.));
#836=DIRECTION('',(0.,0.,1.));
#837=DIRECTION('center_axis',(0.,-1.,0.));
#838=DIRECTION('ref_axis',(1.,0.,0.));
#839=DIRECTION('',(1.,0.,0.));
#840=DIRECTION('',(0.,0.,1.));
#841=DIRECTION('',(1.,0.,0.));
#842=DIRECTION('center_axis',(0.,0.,1.));
#843=DIRECTION('ref_axis',(1.,0.,0.));
#844=DIRECTION('',(0.,1.,0.));
#845=DIRECTION('',(0.,1.,0.));
#846=DIRECTION('center_axis',(1.,0.,0.));
#847=DIRECTION('ref_axis',(0.,1.,0.));
#848=DIRECTION('',(0.,1.,0.));
#849=DIRECTION('',(0.,1.,0.));
#850=DIRECTION('center_axis',(0.,0.,1.));
#851=DIRECTION('ref_axis',(1.,0.,0.));
#852=DIRECTION('center_axis',(0.,0.,1.));
#853=DIRECTION('ref_axis',(1.,0.,0.));
#854=DIRECTION('center_axis',(-1.,0.,0.));
#855=DIRECTION('ref_axis',(0.,-1.,0.));
#856=DIRECTION('',(0.,1.,0.));
#857=DIRECTION('',(0.,0.,1.));
#858=DIRECTION('',(0.,-1.,0.));
#859=DIRECTION('',(0.,0.,1.));
#860=DIRECTION('center_axis',(0.,1.,0.));
#861=DIRECTION('ref_axis',(-1.,0.,0.));
#862=DIRECTION('',(1.,0.,0.));
#863=DIRECTION('',(-1.,0.,0.));
#864=DIRECTION('',(0.,0.,1.));
#865=DIRECTION('center_axis',(1.,0.,0.));
#866=DIRECTION('ref_axis',(0.,1.,0.));
#867=DIRECTION('',(0.,-1.,0.));
#868=DIRECTION('',(0.,1.,0.));
#869=DIRECTION('',(0.,0.,1.));
#870=DIRECTION('center_axis',(0.,-1.,0.));
#871=DIRECTION('ref_axis',(1.,0.,0.));
#872=DIRECTION('',(-1.,0.,0.));
#873=DIRECTION('',(1.,0.,0.));
#874=DIRECTION('center_axis',(0.,0.,1.));
#875=DIRECTION('ref_axis',(1.,0.,0.));
#876=DIRECTION('center_axis',(0.,0.,1.));
#877=DIRECTION('ref_axis',(-1.,0.,0.));
#878=DIRECTION('center_axis',(-1.,0.,0.));
#879=DIRECTION('ref_axis',(0.,-1.,0.));
#880=DIRECTION('',(0.,1.,0.));
#881=DIRECTION('',(0.,0.,1.));
#882=DIRECTION('',(0.,-1.,0.));
#883=DIRECTION('',(0.,0.,1.));
#884=DIRECTION('center_axis',(0.,1.,0.));
#885=DIRECTION('ref_axis',(-1.,0.,0.));
#886=DIRECTION('',(1.,0.,0.));
#887=DIRECTION('',(-1.,0.,0.));
#888=DIRECTION('',(0.,0.,1.));
#889=DIRECTION('center_axis',(1.,0.,0.));
#890=DIRECTION('ref_axis',(0.,1.,0.));
#891=DIRECTION('',(0.,-1.,0.));
#892=DIRECTION('',(0.,1.,0.));
#893=DIRECTION('',(0.,0.,1.));
#894=DIRECTION('center_axis',(0.,-1.,0.));
#895=DIRECTION('ref_axis',(1.,0.,0.));
#896=DIRECTION('',(-1.,0.,0.));
#897=DIRECTION('',(1.,0.,0.));
#898=DIRECTION('center_axis',(0.,0.,1.));
#899=DIRECTION('ref_axis',(1.,0.,0.));
#900=DIRECTION('center_axis',(0.,0.,1.));
#901=DIRECTION('ref_axis',(-1.,0.,0.));
#902=DIRECTION('center_axis',(0.,-1.,0.));
#903=DIRECTION('ref_axis',(1.,0.,0.));
#904=DIRECTION('',(1.,0.,0.));
#905=DIRECTION('',(0.,0.,1.));
#906=DIRECTION('',(1.,0.,0.));
#907=DIRECTION('',(0.,0.,1.));
#908=DIRECTION('center_axis',(-1.,0.,0.));
#909=DIRECTION('ref_axis',(0.,-1.,0.));
#910=DIRECTION('',(0.,-1.,0.));
#911=DIRECTION('',(0.,-1.,0.));
#912=DIRECTION('',(0.,0.,1.));
#913=DIRECTION('center_axis',(0.,-1.,0.));
#914=DIRECTION('ref_axis',(1.,0.,0.));
#915=DIRECTION('',(1.,0.,0.));
#916=DIRECTION('',(1.,0.,0.));
#917=DIRECTION('',(0.,0.,1.));
#918=DIRECTION('center_axis',(-1.,0.,0.));
#919=DIRECTION('ref_axis',(0.,-1.,0.));
#920=DIRECTION('',(0.,-1.,0.));
#921=DIRECTION('',(0.,-1.,0.));
#922=DIRECTION('',(0.,0.,1.));
#923=DIRECTION('center_axis',(0.,1.,0.));
#924=DIRECTION('ref_axis',(-1.,0.,0.));
#925=DIRECTION('',(-1.,0.,0.));
#926=DIRECTION('',(-1.,0.,0.));
#927=DIRECTION('',(0.,0.,1.));
#928=DIRECTION('center_axis',(1.,0.,0.));
#929=DIRECTION('ref_axis',(0.,1.,0.));
#930=DIRECTION('',(0.,1.,0.));
#931=DIRECTION('',(0.,1.,0.));
#932=DIRECTION('center_axis',(0.,0.,1.));
#933=DIRECTION('ref_axis',(1.,0.,0.));
#934=DIRECTION('center_axis',(0.,0.,1.));
#935=DIRECTION('ref_axis',(-1.,0.,0.));
#936=DIRECTION('center_axis',(1.,0.,0.));
#937=DIRECTION('ref_axis',(0.,1.,0.));
#938=DIRECTION('',(0.,-1.,0.));
#939=DIRECTION('',(0.,0.,1.));
#940=DIRECTION('',(0.,1.,0.));
#941=DIRECTION('',(0.,0.,1.));
#942=DIRECTION('center_axis',(0.,-1.,0.));
#943=DIRECTION('ref_axis',(1.,0.,0.));
#944=DIRECTION('',(-1.,0.,0.));
#945=DIRECTION('',(1.,0.,0.));
#946=DIRECTION('',(0.,0.,1.));
#947=DIRECTION('center_axis',(-1.,0.,0.));
#948=DIRECTION('ref_axis',(0.,-1.,0.));
#949=DIRECTION('',(0.,1.,0.));
#950=DIRECTION('',(0.,-1.,0.));
#951=DIRECTION('',(0.,0.,1.));
#952=DIRECTION('center_axis',(0.,1.,0.));
#953=DIRECTION('ref_axis',(-1.,0.,0.));
#954=DIRECTION('',(1.,0.,0.));
#955=DIRECTION('',(-1.,0.,0.));
#956=DIRECTION('',(0.,0.,1.));
#957=DIRECTION('center_axis',(-1.,0.,0.));
#958=DIRECTION('ref_axis',(0.,-1.,0.));
#959=DIRECTION('',(0.,1.,0.));
#960=DIRECTION('',(0.,-1.,0.));
#961=DIRECTION('',(0.,0.,1.));
#962=DIRECTION('center_axis',(0.,1.,0.));
#963=DIRECTION('ref_axis',(-1.,0.,0.));
#964=DIRECTION('',(1.,0.,0.));
#965=DIRECTION('',(-1.,0.,0.));
#966=DIRECTION('center_axis',(0.,0.,1.));
#967=DIRECTION('ref_axis',(1.,0.,0.));
#968=DIRECTION('center_axis',(0.,0.,1.));
#969=DIRECTION('ref_axis',(-1.,0.,0.));
#970=DIRECTION('center_axis',(0.,-1.,0.));
#971=DIRECTION('ref_axis',(-1.,0.,0.));
#972=DIRECTION('',(1.,0.,0.));
#973=DIRECTION('',(0.,0.,-1.));
#974=DIRECTION('',(-1.,0.,0.));
#975=DIRECTION('',(0.,0.,-1.));
#976=DIRECTION('center_axis',(1.,0.,0.));
#977=DIRECTION('ref_axis',(0.,-1.,0.));
#978=DIRECTION('',(0.,1.,0.));
#979=DIRECTION('',(0.,-1.,0.));
#980=DIRECTION('',(0.,0.,-1.));
#981=DIRECTION('center_axis',(0.,1.,0.));
#982=DIRECTION('ref_axis',(1.,0.,0.));
#983=DIRECTION('',(-1.,0.,0.));
#984=DIRECTION('',(1.,0.,0.));
#985=DIRECTION('',(0.,0.,-1.));
#986=DIRECTION('center_axis',(-1.,0.,0.));
#987=DIRECTION('ref_axis',(0.,1.,0.));
#988=DIRECTION('',(0.,-1.,0.));
#989=DIRECTION('',(0.,1.,0.));
#990=DIRECTION('center_axis',(0.,0.,1.));
#991=DIRECTION('ref_axis',(-1.,0.,0.));
#992=DIRECTION('center_axis',(0.,0.,-1.));
#993=DIRECTION('ref_axis',(-1.,0.,0.));
#994=CARTESIAN_POINT('',(0.,0.,0.));
#995=CARTESIAN_POINT('Origin',(-35.2520426557912,21.6845373062429,0.));
#996=CARTESIAN_POINT('',(-35.2520426557912,-20.3154626937571,0.));
#997=CARTESIAN_POINT('',(-35.2520426557912,21.6845373062429,0.));
#998=CARTESIAN_POINT('',(-35.2520426557912,20.6845373062429,0.));
#999=CARTESIAN_POINT('',(-35.2520426557912,-20.3154626937571,6.3));
#1000=CARTESIAN_POINT('',(-35.2520426557912,-20.3154626937571,0.));
#1001=CARTESIAN_POINT('',(-35.2520426557912,21.6845373062429,6.3));
#1002=CARTESIAN_POINT('',(-35.2520426557912,20.6845373062429,6.3));
#1003=CARTESIAN_POINT('',(-35.2520426557912,21.6845373062429,0.));
#1004=CARTESIAN_POINT('Origin',(41.2479573442088,21.6845373062429,0.));
#1005=CARTESIAN_POINT('',(41.2479573442088,21.6845373062429,0.));
#1006=CARTESIAN_POINT('',(-35.2520426557912,21.6845373062429,0.));
#1007=CARTESIAN_POINT('',(41.2479573442088,21.6845373062429,6.3));
#1008=CARTESIAN_POINT('',(-35.2520426557912,21.6845373062429,6.3));
#1009=CARTESIAN_POINT('',(41.2479573442088,21.6845373062429,0.));
#1010=CARTESIAN_POINT('Origin',(-34.2520426557912,20.6845373062429,0.));
#1011=CARTESIAN_POINT('',(41.2479573442088,20.6845373062429,1.));
#1012=CARTESIAN_POINT('',(-34.2520426557912,20.6845373062429,1.));
#1013=CARTESIAN_POINT('',(41.2479573442088,20.6845373062429,1.));
#1014=CARTESIAN_POINT('',(41.2479573442088,20.6845373062429,6.3));
#1015=CARTESIAN_POINT('',(41.2479573442088,20.6845373062429,0.));
#1016=CARTESIAN_POINT('',(-34.2520426557912,20.6845373062429,6.3));
#1017=CARTESIAN_POINT('',(41.2479573442088,20.6845373062429,6.3));
#1018=CARTESIAN_POINT('',(-34.2520426557912,20.6845373062429,0.));
#1019=CARTESIAN_POINT('Origin',(-34.2520426557912,-19.3154626937571,0.));
#1020=CARTESIAN_POINT('',(-34.2520426557912,-19.3154626937571,1.));
#1021=CARTESIAN_POINT('',(-34.2520426557912,20.6845373062429,1.));
#1022=CARTESIAN_POINT('',(-34.2520426557912,-19.3154626937571,6.3));
#1023=CARTESIAN_POINT('',(-34.2520426557912,20.6845373062429,6.3));
#1024=CARTESIAN_POINT('',(-34.2520426557912,-19.3154626937571,0.));
#1025=CARTESIAN_POINT('Origin',(41.2479573442088,-19.3154626937571,0.));
#1026=CARTESIAN_POINT('',(41.2479573442088,-19.3154626937571,1.));
#1027=CARTESIAN_POINT('',(41.2479573442088,-19.3154626937571,1.));
#1028=CARTESIAN_POINT('',(41.2479573442088,-19.3154626937571,6.3));
#1029=CARTESIAN_POINT('',(41.2479573442088,-19.3154626937571,6.3));
#1030=CARTESIAN_POINT('',(41.2479573442088,-19.3154626937571,0.));
#1031=CARTESIAN_POINT('Origin',(-35.2520426557912,-20.3154626937571,0.));
#1032=CARTESIAN_POINT('',(41.2479573442088,-20.3154626937571,0.));
#1033=CARTESIAN_POINT('',(-35.2520426557912,-20.3154626937571,0.));
#1034=CARTESIAN_POINT('',(41.2479573442088,-20.3154626937571,6.3));
#1035=CARTESIAN_POINT('',(41.2479573442088,-20.3154626937571,0.));
#1036=CARTESIAN_POINT('',(-35.2520426557912,-20.3154626937571,6.3));
#1037=CARTESIAN_POINT('Origin',(2.99795734420883,0.684537306242885,6.3));
#1038=CARTESIAN_POINT('',(41.2479573442088,-20.3154626937571,6.3));
#1039=CARTESIAN_POINT('',(41.2479573442088,21.6845373062429,6.3));
#1040=CARTESIAN_POINT('Origin',(41.2479573442088,-19.3154626937571,0.));
#1041=CARTESIAN_POINT('',(41.2479573442088,-20.3154626937571,0.));
#1042=CARTESIAN_POINT('',(41.2479573442088,21.6845373062429,1.));
#1043=CARTESIAN_POINT('Origin',(3.49795734420883,0.684537306242885,1.));
#1044=CARTESIAN_POINT('Origin',(3.49795734420883,0.684537306242885,0.));
#1045=CARTESIAN_POINT('Origin',(-34.2520426557912,20.6845373062429,1.));
#1046=CARTESIAN_POINT('',(-34.2520426557912,-19.3154626937571,1.));
#1047=CARTESIAN_POINT('',(-34.2520426557912,20.6845373062429,1.));
#1048=CARTESIAN_POINT('',(-34.2520426557912,-19.3154626937571,1.));
#1049=CARTESIAN_POINT('',(-34.2520426557912,-19.3154626937571,6.3));
#1050=CARTESIAN_POINT('',(-34.2520426557912,-19.3154626937571,1.));
#1051=CARTESIAN_POINT('',(-34.2520426557912,20.6845373062429,6.3));
#1052=CARTESIAN_POINT('',(-34.2520426557912,-19.3154626937571,6.3));
#1053=CARTESIAN_POINT('',(-34.2520426557912,20.6845373062429,1.));
#1054=CARTESIAN_POINT('Origin',(35.7479573442088,20.6845373062429,1.));
#1055=CARTESIAN_POINT('',(35.7479573442088,20.6845373062429,1.));
#1056=CARTESIAN_POINT('',(-34.2520426557912,20.6845373062429,1.));
#1057=CARTESIAN_POINT('',(35.7479573442088,20.6845373062429,6.3));
#1058=CARTESIAN_POINT('',(-34.2520426557912,20.6845373062429,6.3));
#1059=CARTESIAN_POINT('',(35.7479573442088,20.6845373062429,1.));
#1060=CARTESIAN_POINT('Origin',(35.7479573442088,-19.3154626937571,1.));
#1061=CARTESIAN_POINT('',(35.7479573442088,-19.3154626937571,1.));
#1062=CARTESIAN_POINT('',(35.7479573442088,20.6845373062429,1.));
#1063=CARTESIAN_POINT('',(35.7479573442088,-19.3154626937571,6.3));
#1064=CARTESIAN_POINT('',(35.7479573442088,20.6845373062429,6.3));
#1065=CARTESIAN_POINT('',(35.7479573442088,-19.3154626937571,1.));
#1066=CARTESIAN_POINT('Origin',(-34.2520426557912,-19.3154626937571,1.));
#1067=CARTESIAN_POINT('',(35.7479573442088,-19.3154626937571,1.));
#1068=CARTESIAN_POINT('',(35.7479573442088,-19.3154626937571,6.3));
#1069=CARTESIAN_POINT('Origin',(0.747957344208823,0.684537306242885,6.3));
#1070=CARTESIAN_POINT('Origin',(0.747957344208823,0.684537306242885,1.));
#1071=CARTESIAN_POINT('Origin',(36.0000005364418,18.6850002831221,1.));
#1072=CARTESIAN_POINT('',(36.0000005364418,-17.3149997168779,1.));
#1073=CARTESIAN_POINT('',(36.0000005364418,18.6850002831221,1.));
#1074=CARTESIAN_POINT('',(36.0000005364418,-17.3149997168779,1.));
#1075=CARTESIAN_POINT('',(36.0000005364418,-17.3149997168779,2.5));
#1076=CARTESIAN_POINT('',(36.0000005364418,-17.3149997168779,1.));
#1077=CARTESIAN_POINT('',(36.0000005364418,18.6850002831221,2.5));
#1078=CARTESIAN_POINT('',(36.0000005364418,-17.3149997168779,2.5));
#1079=CARTESIAN_POINT('',(36.0000005364418,18.6850002831221,1.));
#1080=CARTESIAN_POINT('Origin',(40.0000005960464,18.6850002831221,1.));
#1081=CARTESIAN_POINT('',(40.0000005960464,18.6850002831221,1.));
#1082=CARTESIAN_POINT('',(36.0000005364418,18.6850002831221,1.));
#1083=CARTESIAN_POINT('',(40.0000005960464,18.6850002831221,2.5));
#1084=CARTESIAN_POINT('',(36.0000005364418,18.6850002831221,2.5));
#1085=CARTESIAN_POINT('',(40.0000005960464,18.6850002831221,1.));
#1086=CARTESIAN_POINT('Origin',(40.0000005960464,-17.3149997168779,1.));
#1087=CARTESIAN_POINT('',(40.0000005960464,-17.3149997168779,1.));
#1088=CARTESIAN_POINT('',(40.0000005960464,18.6850002831221,1.));
#1089=CARTESIAN_POINT('',(40.0000005960464,-17.3149997168779,2.5));
#1090=CARTESIAN_POINT('',(40.0000005960464,18.6850002831221,2.5));
#1091=CARTESIAN_POINT('',(40.0000005960464,-17.3149997168779,1.));
#1092=CARTESIAN_POINT('Origin',(36.0000005364418,-17.3149997168779,1.));
#1093=CARTESIAN_POINT('',(40.0000005960464,-17.3149997168779,1.));
#1094=CARTESIAN_POINT('',(40.0000005960464,-17.3149997168779,2.5));
#1095=CARTESIAN_POINT('Origin',(38.0000005662441,0.685000283122061,2.5));
#1096=CARTESIAN_POINT('Origin',(38.0000005662441,0.685000283122061,1.));
#1097=CARTESIAN_POINT('Origin',(40.2479573442088,17.6845373062429,1.));
#1098=CARTESIAN_POINT('',(40.2479573442088,17.6845373062429,1.));
#1099=CARTESIAN_POINT('',(41.2479573442088,17.6845373062429,1.));
#1100=CARTESIAN_POINT('',(40.2479573442088,17.6845373062429,1.));
#1101=CARTESIAN_POINT('',(41.2479573442088,17.6845373062429,5.8));
#1102=CARTESIAN_POINT('',(41.2479573442088,17.6845373062429,1.));
#1103=CARTESIAN_POINT('',(40.2479573442088,17.6845373062429,5.8));
#1104=CARTESIAN_POINT('',(40.2479573442088,17.6845373062429,5.8));
#1105=CARTESIAN_POINT('',(40.2479573442088,17.6845373062429,1.));
#1106=CARTESIAN_POINT('Origin',(40.2479573442088,19.6845373062429,1.));
#1107=CARTESIAN_POINT('',(40.2479573442088,19.6845373062429,1.));
#1108=CARTESIAN_POINT('',(40.2479573442088,19.6845373062429,1.));
#1109=CARTESIAN_POINT('',(40.2479573442088,19.6845373062429,5.8));
#1110=CARTESIAN_POINT('',(40.2479573442088,19.6845373062429,5.8));
#1111=CARTESIAN_POINT('',(40.2479573442088,19.6845373062429,1.));
#1112=CARTESIAN_POINT('Origin',(35.7543722145352,19.6845373062429,1.));
#1113=CARTESIAN_POINT('',(35.7543722145352,19.6845373062429,1.));
#1114=CARTESIAN_POINT('',(35.7543722145352,19.6845373062429,1.));
#1115=CARTESIAN_POINT('',(35.7543722145352,19.6845373062429,5.8));
#1116=CARTESIAN_POINT('',(35.7543722145352,19.6845373062429,5.8));
#1117=CARTESIAN_POINT('',(35.7543722145352,19.6845373062429,1.));
#1118=CARTESIAN_POINT('Origin',(35.7543722145352,20.6845373062429,1.));
#1119=CARTESIAN_POINT('',(35.7543722145352,20.6845373062429,1.));
#1120=CARTESIAN_POINT('',(35.7543722145352,20.6845373062429,1.));
#1121=CARTESIAN_POINT('',(35.7543722145352,20.6845373062429,5.8));
#1122=CARTESIAN_POINT('',(35.7543722145352,20.6845373062429,5.8));
#1123=CARTESIAN_POINT('',(35.7543722145352,20.6845373062429,1.));
#1124=CARTESIAN_POINT('Origin',(41.2479573442088,20.6845373062429,1.));
#1125=CARTESIAN_POINT('',(41.2479573442088,20.6845373062429,1.));
#1126=CARTESIAN_POINT('',(41.2479573442088,20.6845373062429,1.));
#1127=CARTESIAN_POINT('',(41.2479573442088,20.6845373062429,5.8));
#1128=CARTESIAN_POINT('',(41.2479573442088,20.6845373062429,5.8));
#1129=CARTESIAN_POINT('',(41.2479573442088,20.6845373062429,1.));
#1130=CARTESIAN_POINT('Origin',(41.2479573442088,17.6845373062429,1.));
#1131=CARTESIAN_POINT('',(41.2479573442088,17.6845373062429,1.));
#1132=CARTESIAN_POINT('',(41.2479573442088,17.6845373062429,5.8));
#1133=CARTESIAN_POINT('Origin',(38.501164779372,19.1845373062429,5.8));
#1134=CARTESIAN_POINT('Origin',(38.501164779372,19.1845373062429,1.));
#1135=CARTESIAN_POINT('Origin',(41.2479573442088,-19.3154626937571,1.));
#1136=CARTESIAN_POINT('',(41.2479573442088,11.6845373062429,1.));
#1137=CARTESIAN_POINT('',(41.2479573442088,-19.3154626937571,1.));
#1138=CARTESIAN_POINT('',(41.2479573442088,-18.3154626937571,1.));
#1139=CARTESIAN_POINT('',(41.2479573442088,11.6845373062429,5.8));
#1140=CARTESIAN_POINT('',(41.2479573442088,11.6845373062429,1.));
#1141=CARTESIAN_POINT('',(41.2479573442088,-19.3154626937571,5.8));
#1142=CARTESIAN_POINT('',(41.2479573442088,-18.3154626937571,5.8));
#1143=CARTESIAN_POINT('',(41.2479573442088,-19.3154626937571,1.));
#1144=CARTESIAN_POINT('Origin',(35.7539573442088,-19.3154626937571,1.));
#1145=CARTESIAN_POINT('',(35.7539573442088,-19.3154626937571,1.));
#1146=CARTESIAN_POINT('',(41.2479573442088,-19.3154626937571,1.));
#1147=CARTESIAN_POINT('',(35.7539573442088,-19.3154626937571,5.8));
#1148=CARTESIAN_POINT('',(41.2479573442088,-19.3154626937571,5.8));
#1149=CARTESIAN_POINT('',(35.7539573442088,-19.3154626937571,1.));
#1150=CARTESIAN_POINT('Origin',(35.7539573442088,-18.3154626937571,1.));
#1151=CARTESIAN_POINT('',(35.7539573442088,-18.3154626937571,1.));
#1152=CARTESIAN_POINT('',(35.7539573442088,-19.3154626937571,1.));
#1153=CARTESIAN_POINT('',(35.7539573442088,-18.3154626937571,5.8));
#1154=CARTESIAN_POINT('',(35.7539573442088,-19.3154626937571,5.8));
#1155=CARTESIAN_POINT('',(35.7539573442088,-18.3154626937571,1.));
#1156=CARTESIAN_POINT('Origin',(40.2479573442088,-18.3154626937571,1.));
#1157=CARTESIAN_POINT('',(40.2479573442088,-18.3154626937571,1.));
#1158=CARTESIAN_POINT('',(35.7539573442088,-18.3154626937571,1.));
#1159=CARTESIAN_POINT('',(40.2479573442088,-18.3154626937571,5.8));
#1160=CARTESIAN_POINT('',(35.7539573442088,-18.3154626937571,5.8));
#1161=CARTESIAN_POINT('',(40.2479573442088,-18.3154626937571,1.));
#1162=CARTESIAN_POINT('Origin',(40.2479573442088,11.6845373062429,1.));
#1163=CARTESIAN_POINT('',(40.2479573442088,11.6845373062429,1.));
#1164=CARTESIAN_POINT('',(40.2479573442088,-18.3154626937571,1.));
#1165=CARTESIAN_POINT('',(40.2479573442088,11.6845373062429,5.8));
#1166=CARTESIAN_POINT('',(40.2479573442088,-18.3154626937571,5.8));
#1167=CARTESIAN_POINT('',(40.2479573442088,11.6845373062429,1.));
#1168=CARTESIAN_POINT('Origin',(41.2479573442088,11.6845373062429,1.));
#1169=CARTESIAN_POINT('',(40.2479573442088,11.6845373062429,1.));
#1170=CARTESIAN_POINT('',(40.2479573442088,11.6845373062429,5.8));
#1171=CARTESIAN_POINT('Origin',(38.5009573442088,-3.81546269375711,5.8));
#1172=CARTESIAN_POINT('Origin',(38.5009573442088,-3.81546269375711,1.));
#1173=CARTESIAN_POINT('Origin',(41.2479573442088,-19.3154626937571,6.3));
#1174=CARTESIAN_POINT('',(35.7539003672906,-19.3154626937571,6.3));
#1175=CARTESIAN_POINT('',(41.2479573442088,-19.3154626937571,6.3));
#1176=CARTESIAN_POINT('',(35.7539003672906,-19.3154626937571,6.3));
#1177=CARTESIAN_POINT('',(35.7539003672906,-19.3154626937571,5.8));
#1178=CARTESIAN_POINT('',(35.7539003672906,-19.3154626937571,6.3));
#1179=CARTESIAN_POINT('',(41.2479573442088,-19.3154626937571,5.8));
#1180=CARTESIAN_POINT('',(35.7539003672906,-19.3154626937571,5.8));
#1181=CARTESIAN_POINT('',(41.2479573442088,-19.3154626937571,6.3));
#1182=CARTESIAN_POINT('Origin',(41.2479573442088,20.6845373062429,6.3));
#1183=CARTESIAN_POINT('',(41.2479573442088,20.6845373062429,6.3));
#1184=CARTESIAN_POINT('',(41.2479573442088,-19.3154626937571,6.3));
#1185=CARTESIAN_POINT('',(41.2479573442088,20.6845373062429,5.8));
#1186=CARTESIAN_POINT('',(41.2479573442088,-19.3154626937571,5.8));
#1187=CARTESIAN_POINT('',(41.2479573442088,20.6845373062429,6.3));
#1188=CARTESIAN_POINT('Origin',(35.7539003672906,20.6845373062429,6.3));
#1189=CARTESIAN_POINT('',(35.7539003672906,20.6845373062429,6.3));
#1190=CARTESIAN_POINT('',(41.2479573442088,20.6845373062429,6.3));
#1191=CARTESIAN_POINT('',(35.7539003672906,20.6845373062429,5.8));
#1192=CARTESIAN_POINT('',(41.2479573442088,20.6845373062429,5.8));
#1193=CARTESIAN_POINT('',(35.7539003672906,20.6845373062429,6.3));
#1194=CARTESIAN_POINT('Origin',(35.7539003672906,-19.3154626937571,6.3));
#1195=CARTESIAN_POINT('',(35.7539003672906,20.6845373062429,6.3));
#1196=CARTESIAN_POINT('',(35.7539003672906,20.6845373062429,5.8));
#1197=CARTESIAN_POINT('Origin',(38.5009288557497,0.684537306242883,6.3));
#1198=CARTESIAN_POINT('Origin',(38.5009288557497,0.684537306242883,5.8));
#1199=UNCERTAINTY_MEASURE_WITH_UNIT(LENGTH_MEASURE(0.01),#1203,
'DISTANCE_ACCURACY_VALUE',
'Maximum model space distance between geometric entities at asserted c
onnectivities');
#1200=UNCERTAINTY_MEASURE_WITH_UNIT(LENGTH_MEASURE(0.01),#1203,
'DISTANCE_ACCURACY_VALUE',
'Maximum model space distance between geometric entities at asserted c
onnectivities');
#1201=(
GEOMETRIC_REPRESENTATION_CONTEXT(3)
GLOBAL_UNCERTAINTY_ASSIGNED_CONTEXT((#1199))
GLOBAL_UNIT_ASSIGNED_CONTEXT((#1203,#1205,#1206))
REPRESENTATION_CONTEXT('','3D')
);
#1202=(
GEOMETRIC_REPRESENTATION_CONTEXT(3)
GLOBAL_UNCERTAINTY_ASSIGNED_CONTEXT((#1200))
GLOBAL_UNIT_ASSIGNED_CONTEXT((#1203,#1205,#1206))
REPRESENTATION_CONTEXT('','3D')
);
#1203=(
LENGTH_UNIT()
NAMED_UNIT(*)
SI_UNIT(.MILLI.,.METRE.)
);
#1204=(
LENGTH_UNIT()
NAMED_UNIT(*)
SI_UNIT($,.METRE.)
);
#1205=(
NAMED_UNIT(*)
PLANE_ANGLE_UNIT()
SI_UNIT($,.RADIAN.)
);
#1206=(
NAMED_UNIT(*)
SI_UNIT($,.STERADIAN.)
SOLID_ANGLE_UNIT()
);
#1207=SHAPE_DEFINITION_REPRESENTATION(#1208,#1209);
#1208=PRODUCT_DEFINITION_SHAPE('',$,#1211);
#1209=SHAPE_REPRESENTATION('',(#763),#1201);
#1210=PRODUCT_DEFINITION_CONTEXT('part definition',#1215,'design');
#1211=PRODUCT_DEFINITION('Battery_3D','Battery_3D v1',#1212,#1210);
#1212=PRODUCT_DEFINITION_FORMATION('',$,#1217);
#1213=PRODUCT_RELATED_PRODUCT_CATEGORY('Battery_3D v1','Battery_3D v1',
(#1217));
#1214=APPLICATION_PROTOCOL_DEFINITION('international standard',
'ap242_managed_model_based_3d_engineering',2011,#1215);
#1215=APPLICATION_CONTEXT('Managed model based 3d engineering');
#1216=PRODUCT_CONTEXT('part definition',#1215,'mechanical');
#1217=PRODUCT('Battery_3D','Battery_3D v1',$,(#1216));
#1218=PRESENTATION_STYLE_ASSIGNMENT((#1223));
#1219=PRESENTATION_STYLE_ASSIGNMENT((#1224));
#1220=PRESENTATION_STYLE_ASSIGNMENT((#1225));
#1221=PRESENTATION_STYLE_ASSIGNMENT((#1226));
#1222=PRESENTATION_STYLE_ASSIGNMENT((#1227));
#1223=SURFACE_STYLE_USAGE(.BOTH.,#1228);
#1224=SURFACE_STYLE_USAGE(.BOTH.,#1229);
#1225=SURFACE_STYLE_USAGE(.BOTH.,#1230);
#1226=SURFACE_STYLE_USAGE(.BOTH.,#1231);
#1227=SURFACE_STYLE_USAGE(.BOTH.,#1232);
#1228=SURFACE_SIDE_STYLE('',(#1233));
#1229=SURFACE_SIDE_STYLE('',(#1234));
#1230=SURFACE_SIDE_STYLE('',(#1235));
#1231=SURFACE_SIDE_STYLE('',(#1236));
#1232=SURFACE_SIDE_STYLE('',(#1237));
#1233=SURFACE_STYLE_FILL_AREA(#1238);
#1234=SURFACE_STYLE_FILL_AREA(#1239);
#1235=SURFACE_STYLE_FILL_AREA(#1240);
#1236=SURFACE_STYLE_FILL_AREA(#1241);
#1237=SURFACE_STYLE_FILL_AREA(#1242);
#1238=FILL_AREA_STYLE('Steel - Satin',(#1243));
#1239=FILL_AREA_STYLE('Nylon 12 (with Formlabs Fuse 1 3D Printer)',(#1244));
#1240=FILL_AREA_STYLE('Plastic - Translucent Matte (Gray)',(#1245));
#1241=FILL_AREA_STYLE('Plastic - Translucent Matte (Green)',(#1246));
#1242=FILL_AREA_STYLE('Phenolic (Amber)',(#1247));
#1243=FILL_AREA_STYLE_COLOUR('Steel - Satin',#1248);
#1244=FILL_AREA_STYLE_COLOUR(
'Nylon 12 (with Formlabs Fuse 1 3D Printer)',#1249);
#1245=FILL_AREA_STYLE_COLOUR('Plastic - Translucent Matte (Gray)',#1250);
#1246=FILL_AREA_STYLE_COLOUR('Plastic - Translucent Matte (Green)',#1251);
#1247=FILL_AREA_STYLE_COLOUR('Phenolic (Amber)',#1252);
#1248=COLOUR_RGB('Steel - Satin',0.627450980392157,0.627450980392157,0.627450980392157);
#1249=COLOUR_RGB('Nylon 12 (with Formlabs Fuse 1 3D Printer)',0.247058823529412,
0.247058823529412,0.247058823529412);
#1250=COLOUR_RGB('Plastic - Translucent Matte (Gray)',0.701960784313725,
0.701960784313725,0.701960784313725);
#1251=COLOUR_RGB('Plastic - Translucent Matte (Green)',0.266666666666667,
0.588235294117647,0.282352941176471);
#1252=COLOUR_RGB('Phenolic (Amber)',0.964705882352941,0.701960784313725,
0.152941176470588);
ENDSEC;
END-ISO-10303-21;
