ISO-10303-21;
HEADER;
/* Generated by software containing ST-Developer
 * from STEP Tools, Inc. (www.steptools.com) 
 */

FILE_DESCRIPTION(
/* description */ ('',
'CAx-IF Rec.Pracs.---Representation and Presentation of Product Manufa
cturing Information (PMI)---4.0---2014-10-13'),
/* implementation_level */ '2;1');

FILE_NAME(
/* name */ 'E-INK_screen_3D v3.step',
/* time_stamp */ '2025-03-25T11:19:03+02:00',
/* author */ (''),
/* organization */ (''),
/* preprocessor_version */ 'ST-DEVELOPER v20',
/* originating_system */ 'Autodesk Translation Framework v13.20.0.188',

/* authorisation */ '');

FILE_SCHEMA (('AP242_MANAGED_MODEL_BASED_3D_ENGINEERING_MIM_LF { 1 0 10303 442 1 1 4 }'));
ENDSEC;

DATA;
#10=MECHANICAL_DESIGN_GEOMETRIC_PRESENTATION_REPRESENTATION('',(#19,#20,
#21),#687);
#11=SHAPE_REPRESENTATION_RELATIONSHIP('SRR','None',#694,#12);
#12=ADVANCED_BREP_SHAPE_REPRESENTATION('',(#22,#23,#24),#686);
#13=CIRCLE('',#449,3.50217227901156);
#14=CIRCLE('',#450,3.50217227901156);
#15=CIRCLE('',#453,3.5921767388219);
#16=CIRCLE('',#454,3.5921767388219);
#17=CYLINDRICAL_SURFACE('',#448,3.50217227901156);
#18=CYLINDRICAL_SURFACE('',#452,3.5921767388219);
#19=STYLED_ITEM('',(#704),#22);
#20=STYLED_ITEM('',(#703),#23);
#21=STYLED_ITEM('',(#705),#24);
#22=MANIFOLD_SOLID_BREP('outline',#417);
#23=MANIFOLD_SOLID_BREP('ps',#418);
#24=MANIFOLD_SOLID_BREP('aa',#419);
#25=FACE_OUTER_BOUND('',#49,.T.);
#26=FACE_OUTER_BOUND('',#50,.T.);
#27=FACE_OUTER_BOUND('',#51,.T.);
#28=FACE_OUTER_BOUND('',#52,.T.);
#29=FACE_OUTER_BOUND('',#53,.T.);
#30=FACE_OUTER_BOUND('',#54,.T.);
#31=FACE_OUTER_BOUND('',#55,.T.);
#32=FACE_OUTER_BOUND('',#56,.T.);
#33=FACE_OUTER_BOUND('',#57,.T.);
#34=FACE_OUTER_BOUND('',#58,.T.);
#35=FACE_OUTER_BOUND('',#59,.T.);
#36=FACE_OUTER_BOUND('',#60,.T.);
#37=FACE_OUTER_BOUND('',#61,.T.);
#38=FACE_OUTER_BOUND('',#62,.T.);
#39=FACE_OUTER_BOUND('',#63,.T.);
#40=FACE_OUTER_BOUND('',#64,.T.);
#41=FACE_OUTER_BOUND('',#65,.T.);
#42=FACE_OUTER_BOUND('',#66,.T.);
#43=FACE_OUTER_BOUND('',#67,.T.);
#44=FACE_OUTER_BOUND('',#68,.T.);
#45=FACE_OUTER_BOUND('',#69,.T.);
#46=FACE_OUTER_BOUND('',#70,.T.);
#47=FACE_OUTER_BOUND('',#71,.T.);
#48=FACE_OUTER_BOUND('',#72,.T.);
#49=EDGE_LOOP('',(#263,#264,#265,#266));
#50=EDGE_LOOP('',(#267,#268,#269,#270));
#51=EDGE_LOOP('',(#271,#272,#273,#274));
#52=EDGE_LOOP('',(#275,#276,#277,#278));
#53=EDGE_LOOP('',(#279,#280,#281,#282));
#54=EDGE_LOOP('',(#283,#284,#285,#286));
#55=EDGE_LOOP('',(#287,#288,#289,#290));
#56=EDGE_LOOP('',(#291,#292,#293,#294));
#57=EDGE_LOOP('',(#295,#296,#297,#298));
#58=EDGE_LOOP('',(#299,#300,#301,#302));
#59=EDGE_LOOP('',(#303,#304,#305,#306));
#60=EDGE_LOOP('',(#307,#308,#309,#310));
#61=EDGE_LOOP('',(#311,#312,#313,#314));
#62=EDGE_LOOP('',(#315,#316,#317,#318));
#63=EDGE_LOOP('',(#319,#320,#321,#322));
#64=EDGE_LOOP('',(#323,#324,#325,#326));
#65=EDGE_LOOP('',(#327,#328,#329,#330));
#66=EDGE_LOOP('',(#331,#332,#333,#334));
#67=EDGE_LOOP('',(#335,#336,#337,#338));
#68=EDGE_LOOP('',(#339,#340,#341,#342));
#69=EDGE_LOOP('',(#343,#344,#345,#346));
#70=EDGE_LOOP('',(#347,#348,#349,#350));
#71=EDGE_LOOP('',(#351,#352,#353,#354,#355,#356,#357,#358,#359,#360));
#72=EDGE_LOOP('',(#361,#362,#363,#364,#365,#366,#367,#368,#369,#370));
#73=LINE('',#573,#123);
#74=LINE('',#575,#124);
#75=LINE('',#577,#125);
#76=LINE('',#578,#126);
#77=LINE('',#581,#127);
#78=LINE('',#583,#128);
#79=LINE('',#584,#129);
#80=LINE('',#587,#130);
#81=LINE('',#589,#131);
#82=LINE('',#590,#132);
#83=LINE('',#592,#133);
#84=LINE('',#593,#134);
#85=LINE('',#599,#135);
#86=LINE('',#601,#136);
#87=LINE('',#603,#137);
#88=LINE('',#604,#138);
#89=LINE('',#607,#139);
#90=LINE('',#609,#140);
#91=LINE('',#610,#141);
#92=LINE('',#613,#142);
#93=LINE('',#615,#143);
#94=LINE('',#616,#144);
#95=LINE('',#618,#145);
#96=LINE('',#619,#146);
#97=LINE('',#625,#147);
#98=LINE('',#627,#148);
#99=LINE('',#629,#149);
#100=LINE('',#630,#150);
#101=LINE('',#633,#151);
#102=LINE('',#635,#152);
#103=LINE('',#636,#153);
#104=LINE('',#639,#154);
#105=LINE('',#641,#155);
#106=LINE('',#642,#156);
#107=LINE('',#648,#157);
#108=LINE('',#651,#158);
#109=LINE('',#653,#159);
#110=LINE('',#654,#160);
#111=LINE('',#660,#161);
#112=LINE('',#663,#162);
#113=LINE('',#665,#163);
#114=LINE('',#666,#164);
#115=LINE('',#669,#165);
#116=LINE('',#671,#166);
#117=LINE('',#672,#167);
#118=LINE('',#675,#168);
#119=LINE('',#677,#169);
#120=LINE('',#678,#170);
#121=LINE('',#680,#171);
#122=LINE('',#681,#172);
#123=VECTOR('',#465,10.);
#124=VECTOR('',#466,10.);
#125=VECTOR('',#467,10.);
#126=VECTOR('',#468,10.);
#127=VECTOR('',#471,10.);
#128=VECTOR('',#472,10.);
#129=VECTOR('',#473,10.);
#130=VECTOR('',#476,10.);
#131=VECTOR('',#477,10.);
#132=VECTOR('',#478,10.);
#133=VECTOR('',#481,10.);
#134=VECTOR('',#482,10.);
#135=VECTOR('',#489,10.);
#136=VECTOR('',#490,10.);
#137=VECTOR('',#491,10.);
#138=VECTOR('',#492,10.);
#139=VECTOR('',#495,10.);
#140=VECTOR('',#496,10.);
#141=VECTOR('',#497,10.);
#142=VECTOR('',#500,10.);
#143=VECTOR('',#501,10.);
#144=VECTOR('',#502,10.);
#145=VECTOR('',#505,10.);
#146=VECTOR('',#506,10.);
#147=VECTOR('',#513,10.);
#148=VECTOR('',#514,10.);
#149=VECTOR('',#515,10.);
#150=VECTOR('',#516,10.);
#151=VECTOR('',#519,10.);
#152=VECTOR('',#520,10.);
#153=VECTOR('',#521,10.);
#154=VECTOR('',#524,10.);
#155=VECTOR('',#525,10.);
#156=VECTOR('',#526,10.);
#157=VECTOR('',#533,10.);
#158=VECTOR('',#536,10.);
#159=VECTOR('',#537,10.);
#160=VECTOR('',#538,10.);
#161=VECTOR('',#545,10.);
#162=VECTOR('',#548,10.);
#163=VECTOR('',#549,10.);
#164=VECTOR('',#550,10.);
#165=VECTOR('',#553,10.);
#166=VECTOR('',#554,10.);
#167=VECTOR('',#555,10.);
#168=VECTOR('',#558,10.);
#169=VECTOR('',#559,10.);
#170=VECTOR('',#560,10.);
#171=VECTOR('',#563,10.);
#172=VECTOR('',#564,10.);
#173=VERTEX_POINT('',#571);
#174=VERTEX_POINT('',#572);
#175=VERTEX_POINT('',#574);
#176=VERTEX_POINT('',#576);
#177=VERTEX_POINT('',#580);
#178=VERTEX_POINT('',#582);
#179=VERTEX_POINT('',#586);
#180=VERTEX_POINT('',#588);
#181=VERTEX_POINT('',#597);
#182=VERTEX_POINT('',#598);
#183=VERTEX_POINT('',#600);
#184=VERTEX_POINT('',#602);
#185=VERTEX_POINT('',#606);
#186=VERTEX_POINT('',#608);
#187=VERTEX_POINT('',#612);
#188=VERTEX_POINT('',#614);
#189=VERTEX_POINT('',#623);
#190=VERTEX_POINT('',#624);
#191=VERTEX_POINT('',#626);
#192=VERTEX_POINT('',#628);
#193=VERTEX_POINT('',#632);
#194=VERTEX_POINT('',#634);
#195=VERTEX_POINT('',#638);
#196=VERTEX_POINT('',#640);
#197=VERTEX_POINT('',#644);
#198=VERTEX_POINT('',#646);
#199=VERTEX_POINT('',#650);
#200=VERTEX_POINT('',#652);
#201=VERTEX_POINT('',#656);
#202=VERTEX_POINT('',#658);
#203=VERTEX_POINT('',#662);
#204=VERTEX_POINT('',#664);
#205=VERTEX_POINT('',#668);
#206=VERTEX_POINT('',#670);
#207=VERTEX_POINT('',#674);
#208=VERTEX_POINT('',#676);
#209=EDGE_CURVE('',#173,#174,#73,.T.);
#210=EDGE_CURVE('',#173,#175,#74,.T.);
#211=EDGE_CURVE('',#176,#175,#75,.T.);
#212=EDGE_CURVE('',#174,#176,#76,.T.);
#213=EDGE_CURVE('',#174,#177,#77,.T.);
#214=EDGE_CURVE('',#178,#176,#78,.T.);
#215=EDGE_CURVE('',#177,#178,#79,.T.);
#216=EDGE_CURVE('',#177,#179,#80,.T.);
#217=EDGE_CURVE('',#180,#178,#81,.T.);
#218=EDGE_CURVE('',#179,#180,#82,.T.);
#219=EDGE_CURVE('',#179,#173,#83,.T.);
#220=EDGE_CURVE('',#175,#180,#84,.T.);
#221=EDGE_CURVE('',#181,#182,#85,.T.);
#222=EDGE_CURVE('',#181,#183,#86,.T.);
#223=EDGE_CURVE('',#184,#183,#87,.T.);
#224=EDGE_CURVE('',#182,#184,#88,.T.);
#225=EDGE_CURVE('',#182,#185,#89,.T.);
#226=EDGE_CURVE('',#186,#184,#90,.T.);
#227=EDGE_CURVE('',#185,#186,#91,.T.);
#228=EDGE_CURVE('',#185,#187,#92,.T.);
#229=EDGE_CURVE('',#188,#186,#93,.T.);
#230=EDGE_CURVE('',#187,#188,#94,.T.);
#231=EDGE_CURVE('',#187,#181,#95,.T.);
#232=EDGE_CURVE('',#183,#188,#96,.T.);
#233=EDGE_CURVE('',#189,#190,#97,.T.);
#234=EDGE_CURVE('',#189,#191,#98,.T.);
#235=EDGE_CURVE('',#192,#191,#99,.T.);
#236=EDGE_CURVE('',#190,#192,#100,.T.);
#237=EDGE_CURVE('',#190,#193,#101,.T.);
#238=EDGE_CURVE('',#194,#192,#102,.T.);
#239=EDGE_CURVE('',#193,#194,#103,.T.);
#240=EDGE_CURVE('',#193,#195,#104,.T.);
#241=EDGE_CURVE('',#196,#194,#105,.T.);
#242=EDGE_CURVE('',#195,#196,#106,.T.);
#243=EDGE_CURVE('',#195,#197,#13,.T.);
#244=EDGE_CURVE('',#198,#196,#14,.T.);
#245=EDGE_CURVE('',#197,#198,#107,.T.);
#246=EDGE_CURVE('',#197,#199,#108,.T.);
#247=EDGE_CURVE('',#200,#198,#109,.T.);
#248=EDGE_CURVE('',#199,#200,#110,.T.);
#249=EDGE_CURVE('',#199,#201,#15,.T.);
#250=EDGE_CURVE('',#202,#200,#16,.T.);
#251=EDGE_CURVE('',#201,#202,#111,.T.);
#252=EDGE_CURVE('',#203,#201,#112,.T.);
#253=EDGE_CURVE('',#204,#202,#113,.T.);
#254=EDGE_CURVE('',#203,#204,#114,.T.);
#255=EDGE_CURVE('',#205,#203,#115,.T.);
#256=EDGE_CURVE('',#206,#204,#116,.T.);
#257=EDGE_CURVE('',#205,#206,#117,.T.);
#258=EDGE_CURVE('',#207,#205,#118,.T.);
#259=EDGE_CURVE('',#208,#206,#119,.T.);
#260=EDGE_CURVE('',#207,#208,#120,.T.);
#261=EDGE_CURVE('',#189,#207,#121,.T.);
#262=EDGE_CURVE('',#191,#208,#122,.T.);
#263=ORIENTED_EDGE('',*,*,#209,.F.);
#264=ORIENTED_EDGE('',*,*,#210,.T.);
#265=ORIENTED_EDGE('',*,*,#211,.F.);
#266=ORIENTED_EDGE('',*,*,#212,.F.);
#267=ORIENTED_EDGE('',*,*,#213,.F.);
#268=ORIENTED_EDGE('',*,*,#212,.T.);
#269=ORIENTED_EDGE('',*,*,#214,.F.);
#270=ORIENTED_EDGE('',*,*,#215,.F.);
#271=ORIENTED_EDGE('',*,*,#216,.F.);
#272=ORIENTED_EDGE('',*,*,#215,.T.);
#273=ORIENTED_EDGE('',*,*,#217,.F.);
#274=ORIENTED_EDGE('',*,*,#218,.F.);
#275=ORIENTED_EDGE('',*,*,#219,.F.);
#276=ORIENTED_EDGE('',*,*,#218,.T.);
#277=ORIENTED_EDGE('',*,*,#220,.F.);
#278=ORIENTED_EDGE('',*,*,#210,.F.);
#279=ORIENTED_EDGE('',*,*,#220,.T.);
#280=ORIENTED_EDGE('',*,*,#217,.T.);
#281=ORIENTED_EDGE('',*,*,#214,.T.);
#282=ORIENTED_EDGE('',*,*,#211,.T.);
#283=ORIENTED_EDGE('',*,*,#219,.T.);
#284=ORIENTED_EDGE('',*,*,#209,.T.);
#285=ORIENTED_EDGE('',*,*,#213,.T.);
#286=ORIENTED_EDGE('',*,*,#216,.T.);
#287=ORIENTED_EDGE('',*,*,#221,.F.);
#288=ORIENTED_EDGE('',*,*,#222,.T.);
#289=ORIENTED_EDGE('',*,*,#223,.F.);
#290=ORIENTED_EDGE('',*,*,#224,.F.);
#291=ORIENTED_EDGE('',*,*,#225,.F.);
#292=ORIENTED_EDGE('',*,*,#224,.T.);
#293=ORIENTED_EDGE('',*,*,#226,.F.);
#294=ORIENTED_EDGE('',*,*,#227,.F.);
#295=ORIENTED_EDGE('',*,*,#228,.F.);
#296=ORIENTED_EDGE('',*,*,#227,.T.);
#297=ORIENTED_EDGE('',*,*,#229,.F.);
#298=ORIENTED_EDGE('',*,*,#230,.F.);
#299=ORIENTED_EDGE('',*,*,#231,.F.);
#300=ORIENTED_EDGE('',*,*,#230,.T.);
#301=ORIENTED_EDGE('',*,*,#232,.F.);
#302=ORIENTED_EDGE('',*,*,#222,.F.);
#303=ORIENTED_EDGE('',*,*,#232,.T.);
#304=ORIENTED_EDGE('',*,*,#229,.T.);
#305=ORIENTED_EDGE('',*,*,#226,.T.);
#306=ORIENTED_EDGE('',*,*,#223,.T.);
#307=ORIENTED_EDGE('',*,*,#231,.T.);
#308=ORIENTED_EDGE('',*,*,#221,.T.);
#309=ORIENTED_EDGE('',*,*,#225,.T.);
#310=ORIENTED_EDGE('',*,*,#228,.T.);
#311=ORIENTED_EDGE('',*,*,#233,.F.);
#312=ORIENTED_EDGE('',*,*,#234,.T.);
#313=ORIENTED_EDGE('',*,*,#235,.F.);
#314=ORIENTED_EDGE('',*,*,#236,.F.);
#315=ORIENTED_EDGE('',*,*,#237,.F.);
#316=ORIENTED_EDGE('',*,*,#236,.T.);
#317=ORIENTED_EDGE('',*,*,#238,.F.);
#318=ORIENTED_EDGE('',*,*,#239,.F.);
#319=ORIENTED_EDGE('',*,*,#240,.F.);
#320=ORIENTED_EDGE('',*,*,#239,.T.);
#321=ORIENTED_EDGE('',*,*,#241,.F.);
#322=ORIENTED_EDGE('',*,*,#242,.F.);
#323=ORIENTED_EDGE('',*,*,#243,.F.);
#324=ORIENTED_EDGE('',*,*,#242,.T.);
#325=ORIENTED_EDGE('',*,*,#244,.F.);
#326=ORIENTED_EDGE('',*,*,#245,.F.);
#327=ORIENTED_EDGE('',*,*,#246,.F.);
#328=ORIENTED_EDGE('',*,*,#245,.T.);
#329=ORIENTED_EDGE('',*,*,#247,.F.);
#330=ORIENTED_EDGE('',*,*,#248,.F.);
#331=ORIENTED_EDGE('',*,*,#249,.F.);
#332=ORIENTED_EDGE('',*,*,#248,.T.);
#333=ORIENTED_EDGE('',*,*,#250,.F.);
#334=ORIENTED_EDGE('',*,*,#251,.F.);
#335=ORIENTED_EDGE('',*,*,#252,.T.);
#336=ORIENTED_EDGE('',*,*,#251,.T.);
#337=ORIENTED_EDGE('',*,*,#253,.F.);
#338=ORIENTED_EDGE('',*,*,#254,.F.);
#339=ORIENTED_EDGE('',*,*,#255,.T.);
#340=ORIENTED_EDGE('',*,*,#254,.T.);
#341=ORIENTED_EDGE('',*,*,#256,.F.);
#342=ORIENTED_EDGE('',*,*,#257,.F.);
#343=ORIENTED_EDGE('',*,*,#258,.T.);
#344=ORIENTED_EDGE('',*,*,#257,.T.);
#345=ORIENTED_EDGE('',*,*,#259,.F.);
#346=ORIENTED_EDGE('',*,*,#260,.F.);
#347=ORIENTED_EDGE('',*,*,#261,.T.);
#348=ORIENTED_EDGE('',*,*,#260,.T.);
#349=ORIENTED_EDGE('',*,*,#262,.F.);
#350=ORIENTED_EDGE('',*,*,#234,.F.);
#351=ORIENTED_EDGE('',*,*,#262,.T.);
#352=ORIENTED_EDGE('',*,*,#259,.T.);
#353=ORIENTED_EDGE('',*,*,#256,.T.);
#354=ORIENTED_EDGE('',*,*,#253,.T.);
#355=ORIENTED_EDGE('',*,*,#250,.T.);
#356=ORIENTED_EDGE('',*,*,#247,.T.);
#357=ORIENTED_EDGE('',*,*,#244,.T.);
#358=ORIENTED_EDGE('',*,*,#241,.T.);
#359=ORIENTED_EDGE('',*,*,#238,.T.);
#360=ORIENTED_EDGE('',*,*,#235,.T.);
#361=ORIENTED_EDGE('',*,*,#261,.F.);
#362=ORIENTED_EDGE('',*,*,#233,.T.);
#363=ORIENTED_EDGE('',*,*,#237,.T.);
#364=ORIENTED_EDGE('',*,*,#240,.T.);
#365=ORIENTED_EDGE('',*,*,#243,.T.);
#366=ORIENTED_EDGE('',*,*,#246,.T.);
#367=ORIENTED_EDGE('',*,*,#249,.T.);
#368=ORIENTED_EDGE('',*,*,#252,.F.);
#369=ORIENTED_EDGE('',*,*,#255,.F.);
#370=ORIENTED_EDGE('',*,*,#258,.F.);
#371=PLANE('',#433);
#372=PLANE('',#434);
#373=PLANE('',#435);
#374=PLANE('',#436);
#375=PLANE('',#437);
#376=PLANE('',#438);
#377=PLANE('',#439);
#378=PLANE('',#440);
#379=PLANE('',#441);
#380=PLANE('',#442);
#381=PLANE('',#443);
#382=PLANE('',#444);
#383=PLANE('',#445);
#384=PLANE('',#446);
#385=PLANE('',#447);
#386=PLANE('',#451);
#387=PLANE('',#455);
#388=PLANE('',#456);
#389=PLANE('',#457);
#390=PLANE('',#458);
#391=PLANE('',#459);
#392=PLANE('',#460);
#393=ADVANCED_FACE('',(#25),#371,.T.);
#394=ADVANCED_FACE('',(#26),#372,.T.);
#395=ADVANCED_FACE('',(#27),#373,.T.);
#396=ADVANCED_FACE('',(#28),#374,.T.);
#397=ADVANCED_FACE('',(#29),#375,.T.);
#398=ADVANCED_FACE('',(#30),#376,.F.);
#399=ADVANCED_FACE('',(#31),#377,.T.);
#400=ADVANCED_FACE('',(#32),#378,.T.);
#401=ADVANCED_FACE('',(#33),#379,.T.);
#402=ADVANCED_FACE('',(#34),#380,.T.);
#403=ADVANCED_FACE('',(#35),#381,.T.);
#404=ADVANCED_FACE('',(#36),#382,.F.);
#405=ADVANCED_FACE('',(#37),#383,.T.);
#406=ADVANCED_FACE('',(#38),#384,.T.);
#407=ADVANCED_FACE('',(#39),#385,.T.);
#408=ADVANCED_FACE('',(#40),#17,.F.);
#409=ADVANCED_FACE('',(#41),#386,.T.);
#410=ADVANCED_FACE('',(#42),#18,.F.);
#411=ADVANCED_FACE('',(#43),#387,.T.);
#412=ADVANCED_FACE('',(#44),#388,.T.);
#413=ADVANCED_FACE('',(#45),#389,.T.);
#414=ADVANCED_FACE('',(#46),#390,.T.);
#415=ADVANCED_FACE('',(#47),#391,.T.);
#416=ADVANCED_FACE('',(#48),#392,.F.);
#417=CLOSED_SHELL('',(#393,#394,#395,#396,#397,#398));
#418=CLOSED_SHELL('',(#399,#400,#401,#402,#403,#404));
#419=CLOSED_SHELL('',(#405,#406,#407,#408,#409,#410,#411,#412,#413,#414,
#415,#416));
#420=DERIVED_UNIT_ELEMENT(#422,1.);
#421=DERIVED_UNIT_ELEMENT(#689,-3.);
#422=(
MASS_UNIT()
NAMED_UNIT(*)
SI_UNIT(.KILO.,.GRAM.)
);
#423=DERIVED_UNIT((#420,#421));
#424=MEASURE_REPRESENTATION_ITEM('density measure',
POSITIVE_RATIO_MEASURE(7850.),#423);
#425=PROPERTY_DEFINITION_REPRESENTATION(#430,#427);
#426=PROPERTY_DEFINITION_REPRESENTATION(#431,#428);
#427=REPRESENTATION('material name',(#429),#686);
#428=REPRESENTATION('density',(#424),#686);
#429=DESCRIPTIVE_REPRESENTATION_ITEM('Steel','Steel');
#430=PROPERTY_DEFINITION('material property','material name',#696);
#431=PROPERTY_DEFINITION('material property','density of part',#696);
#432=AXIS2_PLACEMENT_3D('',#569,#461,#462);
#433=AXIS2_PLACEMENT_3D('',#570,#463,#464);
#434=AXIS2_PLACEMENT_3D('',#579,#469,#470);
#435=AXIS2_PLACEMENT_3D('',#585,#474,#475);
#436=AXIS2_PLACEMENT_3D('',#591,#479,#480);
#437=AXIS2_PLACEMENT_3D('',#594,#483,#484);
#438=AXIS2_PLACEMENT_3D('',#595,#485,#486);
#439=AXIS2_PLACEMENT_3D('',#596,#487,#488);
#440=AXIS2_PLACEMENT_3D('',#605,#493,#494);
#441=AXIS2_PLACEMENT_3D('',#611,#498,#499);
#442=AXIS2_PLACEMENT_3D('',#617,#503,#504);
#443=AXIS2_PLACEMENT_3D('',#620,#507,#508);
#444=AXIS2_PLACEMENT_3D('',#621,#509,#510);
#445=AXIS2_PLACEMENT_3D('',#622,#511,#512);
#446=AXIS2_PLACEMENT_3D('',#631,#517,#518);
#447=AXIS2_PLACEMENT_3D('',#637,#522,#523);
#448=AXIS2_PLACEMENT_3D('',#643,#527,#528);
#449=AXIS2_PLACEMENT_3D('',#645,#529,#530);
#450=AXIS2_PLACEMENT_3D('',#647,#531,#532);
#451=AXIS2_PLACEMENT_3D('',#649,#534,#535);
#452=AXIS2_PLACEMENT_3D('',#655,#539,#540);
#453=AXIS2_PLACEMENT_3D('',#657,#541,#542);
#454=AXIS2_PLACEMENT_3D('',#659,#543,#544);
#455=AXIS2_PLACEMENT_3D('',#661,#546,#547);
#456=AXIS2_PLACEMENT_3D('',#667,#551,#552);
#457=AXIS2_PLACEMENT_3D('',#673,#556,#557);
#458=AXIS2_PLACEMENT_3D('',#679,#561,#562);
#459=AXIS2_PLACEMENT_3D('',#682,#565,#566);
#460=AXIS2_PLACEMENT_3D('',#683,#567,#568);
#461=DIRECTION('axis',(0.,0.,1.));
#462=DIRECTION('refdir',(1.,0.,0.));
#463=DIRECTION('center_axis',(1.,0.,0.));
#464=DIRECTION('ref_axis',(0.,1.,0.));
#465=DIRECTION('',(0.,-1.,0.));
#466=DIRECTION('',(0.,0.,1.));
#467=DIRECTION('',(0.,1.,0.));
#468=DIRECTION('',(0.,0.,1.));
#469=DIRECTION('center_axis',(0.,-1.,0.));
#470=DIRECTION('ref_axis',(1.,0.,0.));
#471=DIRECTION('',(-1.,0.,0.));
#472=DIRECTION('',(1.,0.,0.));
#473=DIRECTION('',(0.,0.,1.));
#474=DIRECTION('center_axis',(-1.,0.,0.));
#475=DIRECTION('ref_axis',(0.,-1.,0.));
#476=DIRECTION('',(0.,1.,0.));
#477=DIRECTION('',(0.,-1.,0.));
#478=DIRECTION('',(0.,0.,1.));
#479=DIRECTION('center_axis',(0.,1.,0.));
#480=DIRECTION('ref_axis',(-1.,0.,0.));
#481=DIRECTION('',(1.,0.,0.));
#482=DIRECTION('',(-1.,0.,0.));
#483=DIRECTION('center_axis',(0.,0.,1.));
#484=DIRECTION('ref_axis',(1.,0.,0.));
#485=DIRECTION('center_axis',(0.,0.,1.));
#486=DIRECTION('ref_axis',(1.,0.,0.));
#487=DIRECTION('center_axis',(-1.,0.,0.));
#488=DIRECTION('ref_axis',(0.,-1.,0.));
#489=DIRECTION('',(0.,1.,0.));
#490=DIRECTION('',(0.,0.,1.));
#491=DIRECTION('',(0.,-1.,0.));
#492=DIRECTION('',(0.,0.,1.));
#493=DIRECTION('center_axis',(0.,1.,0.));
#494=DIRECTION('ref_axis',(-1.,0.,0.));
#495=DIRECTION('',(1.,0.,0.));
#496=DIRECTION('',(-1.,0.,0.));
#497=DIRECTION('',(0.,0.,1.));
#498=DIRECTION('center_axis',(1.,0.,0.));
#499=DIRECTION('ref_axis',(0.,1.,0.));
#500=DIRECTION('',(0.,-1.,0.));
#501=DIRECTION('',(0.,1.,0.));
#502=DIRECTION('',(0.,0.,1.));
#503=DIRECTION('center_axis',(0.,-1.,0.));
#504=DIRECTION('ref_axis',(1.,0.,0.));
#505=DIRECTION('',(-1.,0.,0.));
#506=DIRECTION('',(1.,0.,0.));
#507=DIRECTION('center_axis',(0.,0.,1.));
#508=DIRECTION('ref_axis',(1.,0.,0.));
#509=DIRECTION('center_axis',(0.,0.,1.));
#510=DIRECTION('ref_axis',(1.,0.,0.));
#511=DIRECTION('center_axis',(0.,1.,0.));
#512=DIRECTION('ref_axis',(-1.,0.,0.));
#513=DIRECTION('',(1.,0.,0.));
#514=DIRECTION('',(0.,0.,1.));
#515=DIRECTION('',(-1.,0.,0.));
#516=DIRECTION('',(0.,0.,1.));
#517=DIRECTION('center_axis',(1.,0.,0.));
#518=DIRECTION('ref_axis',(0.,1.,0.));
#519=DIRECTION('',(0.,-1.,0.));
#520=DIRECTION('',(0.,1.,0.));
#521=DIRECTION('',(0.,0.,1.));
#522=DIRECTION('center_axis',(0.,-1.,0.));
#523=DIRECTION('ref_axis',(1.,0.,0.));
#524=DIRECTION('',(-1.,0.,0.));
#525=DIRECTION('',(1.,0.,0.));
#526=DIRECTION('',(0.,0.,1.));
#527=DIRECTION('center_axis',(0.,0.,1.));
#528=DIRECTION('ref_axis',(0.,1.,0.));
#529=DIRECTION('center_axis',(0.,0.,1.));
#530=DIRECTION('ref_axis',(0.,1.,0.));
#531=DIRECTION('center_axis',(0.,0.,-1.));
#532=DIRECTION('ref_axis',(0.,1.,0.));
#533=DIRECTION('',(0.,0.,1.));
#534=DIRECTION('center_axis',(1.,0.,0.));
#535=DIRECTION('ref_axis',(0.,1.,0.));
#536=DIRECTION('',(0.,-1.,0.));
#537=DIRECTION('',(0.,1.,0.));
#538=DIRECTION('',(0.,0.,1.));
#539=DIRECTION('center_axis',(0.,0.,1.));
#540=DIRECTION('ref_axis',(-0.97433958696249,-0.225083027520433,0.));
#541=DIRECTION('center_axis',(0.,0.,1.));
#542=DIRECTION('ref_axis',(-0.97433958696249,-0.225083027520433,0.));
#543=DIRECTION('center_axis',(0.,0.,-1.));
#544=DIRECTION('ref_axis',(-0.97433958696249,-0.225083027520433,0.));
#545=DIRECTION('',(0.,0.,1.));
#546=DIRECTION('center_axis',(0.,1.,0.));
#547=DIRECTION('ref_axis',(-1.,0.,0.));
#548=DIRECTION('',(-1.,0.,0.));
#549=DIRECTION('',(-1.,0.,0.));
#550=DIRECTION('',(0.,0.,1.));
#551=DIRECTION('center_axis',(1.,0.,0.));
#552=DIRECTION('ref_axis',(0.,1.,0.));
#553=DIRECTION('',(0.,1.,0.));
#554=DIRECTION('',(0.,1.,0.));
#555=DIRECTION('',(0.,0.,1.));
#556=DIRECTION('center_axis',(0.,-1.,0.));
#557=DIRECTION('ref_axis',(1.,0.,0.));
#558=DIRECTION('',(1.,0.,0.));
#559=DIRECTION('',(1.,0.,0.));
#560=DIRECTION('',(0.,0.,1.));
#561=DIRECTION('center_axis',(-1.,0.,0.));
#562=DIRECTION('ref_axis',(0.,-1.,0.));
#563=DIRECTION('',(0.,-1.,0.));
#564=DIRECTION('',(0.,-1.,0.));
#565=DIRECTION('center_axis',(0.,0.,1.));
#566=DIRECTION('ref_axis',(1.,0.,0.));
#567=DIRECTION('center_axis',(0.,0.,1.));
#568=DIRECTION('ref_axis',(1.,0.,0.));
#569=CARTESIAN_POINT('',(0.,0.,0.));
#570=CARTESIAN_POINT('Origin',(55.6,-85.1,0.));
#571=CARTESIAN_POINT('',(55.6,85.1,0.));
#572=CARTESIAN_POINT('',(55.6,-85.1,0.));
#573=CARTESIAN_POINT('',(55.6,85.1,0.));
#574=CARTESIAN_POINT('',(55.6,85.1,1.18));
#575=CARTESIAN_POINT('',(55.6,85.1,0.));
#576=CARTESIAN_POINT('',(55.6,-85.1,1.18));
#577=CARTESIAN_POINT('',(55.6,85.1,1.18));
#578=CARTESIAN_POINT('',(55.6,-85.1,0.));
#579=CARTESIAN_POINT('Origin',(-55.6,-85.1,0.));
#580=CARTESIAN_POINT('',(-55.6,-85.1,0.));
#581=CARTESIAN_POINT('',(55.6,-85.1,0.));
#582=CARTESIAN_POINT('',(-55.6,-85.1,1.18));
#583=CARTESIAN_POINT('',(55.6,-85.1,1.18));
#584=CARTESIAN_POINT('',(-55.6,-85.1,0.));
#585=CARTESIAN_POINT('Origin',(-55.6,85.1,0.));
#586=CARTESIAN_POINT('',(-55.6,85.1,0.));
#587=CARTESIAN_POINT('',(-55.6,-85.1,0.));
#588=CARTESIAN_POINT('',(-55.6,85.1,1.18));
#589=CARTESIAN_POINT('',(-55.6,-85.1,1.18));
#590=CARTESIAN_POINT('',(-55.6,85.1,0.));
#591=CARTESIAN_POINT('Origin',(55.6,85.1,0.));
#592=CARTESIAN_POINT('',(-55.6,85.1,0.));
#593=CARTESIAN_POINT('',(-55.6,85.1,1.18));
#594=CARTESIAN_POINT('Origin',(0.,0.,1.18));
#595=CARTESIAN_POINT('Origin',(0.,0.,0.));
#596=CARTESIAN_POINT('Origin',(-52.1,81.6,1.18));
#597=CARTESIAN_POINT('',(-52.1,-81.6,1.18));
#598=CARTESIAN_POINT('',(-52.1,81.6,1.18));
#599=CARTESIAN_POINT('',(-52.1,-81.6,1.18));
#600=CARTESIAN_POINT('',(-52.1,-81.6,1.88));
#601=CARTESIAN_POINT('',(-52.1,-81.6,1.18));
#602=CARTESIAN_POINT('',(-52.1,81.6,1.88));
#603=CARTESIAN_POINT('',(-52.1,-81.6,1.88));
#604=CARTESIAN_POINT('',(-52.1,81.6,1.18));
#605=CARTESIAN_POINT('Origin',(45.82,81.6,1.18));
#606=CARTESIAN_POINT('',(45.82,81.6,1.18));
#607=CARTESIAN_POINT('',(-52.1,81.6,1.18));
#608=CARTESIAN_POINT('',(45.82,81.6,1.88));
#609=CARTESIAN_POINT('',(-52.1,81.6,1.88));
#610=CARTESIAN_POINT('',(45.82,81.6,1.18));
#611=CARTESIAN_POINT('Origin',(45.82,-81.6,1.18));
#612=CARTESIAN_POINT('',(45.82,-81.6,1.18));
#613=CARTESIAN_POINT('',(45.82,81.6,1.18));
#614=CARTESIAN_POINT('',(45.82,-81.6,1.88));
#615=CARTESIAN_POINT('',(45.82,81.6,1.88));
#616=CARTESIAN_POINT('',(45.82,-81.6,1.18));
#617=CARTESIAN_POINT('Origin',(-52.1,-81.6,1.18));
#618=CARTESIAN_POINT('',(45.82,-81.6,1.18));
#619=CARTESIAN_POINT('',(45.82,-81.6,1.88));
#620=CARTESIAN_POINT('Origin',(-3.13999999999998,0.,1.88));
#621=CARTESIAN_POINT('Origin',(-3.13999999999998,0.,1.18));
#622=CARTESIAN_POINT('Origin',(52.69,83.9,1.18));
#623=CARTESIAN_POINT('',(-54.4,83.9,1.18));
#624=CARTESIAN_POINT('',(52.69,83.9,1.18));
#625=CARTESIAN_POINT('',(-54.4,83.9,1.18));
#626=CARTESIAN_POINT('',(-54.4,83.9,1.2));
#627=CARTESIAN_POINT('',(-54.4,83.9,1.18));
#628=CARTESIAN_POINT('',(52.69,83.9,1.2));
#629=CARTESIAN_POINT('',(-54.4,83.9,1.2));
#630=CARTESIAN_POINT('',(52.69,83.9,1.18));
#631=CARTESIAN_POINT('Origin',(52.69,74.9,1.18));
#632=CARTESIAN_POINT('',(52.69,74.9,1.18));
#633=CARTESIAN_POINT('',(52.69,83.9,1.18));
#634=CARTESIAN_POINT('',(52.69,74.9,1.2));
#635=CARTESIAN_POINT('',(52.69,83.9,1.2));
#636=CARTESIAN_POINT('',(52.69,74.9,1.18));
#637=CARTESIAN_POINT('Origin',(51.19,74.9,1.18));
#638=CARTESIAN_POINT('',(51.19,74.9,1.18));
#639=CARTESIAN_POINT('',(52.69,74.9,1.18));
#640=CARTESIAN_POINT('',(51.19,74.9,1.2));
#641=CARTESIAN_POINT('',(52.69,74.9,1.2));
#642=CARTESIAN_POINT('',(51.19,74.9,1.18));
#643=CARTESIAN_POINT('Origin',(51.19,71.3978277209884,1.18));
#644=CARTESIAN_POINT('',(47.69,71.5211592736303,1.18));
#645=CARTESIAN_POINT('Origin',(51.19,71.3978277209884,1.18));
#646=CARTESIAN_POINT('',(47.69,71.5211592736303,1.2));
#647=CARTESIAN_POINT('Origin',(51.19,71.3978277209884,1.2));
#648=CARTESIAN_POINT('',(47.69,71.5211592736303,1.18));
#649=CARTESIAN_POINT('Origin',(47.69,-72.1163612769406,1.18));
#650=CARTESIAN_POINT('',(47.69,-72.1163612769406,1.18));
#651=CARTESIAN_POINT('',(47.69,71.5211592736303,1.18));
#652=CARTESIAN_POINT('',(47.69,-72.1163612769406,1.2));
#653=CARTESIAN_POINT('',(47.69,71.5211592736303,1.2));
#654=CARTESIAN_POINT('',(47.69,-72.1163612769406,1.18));
#655=CARTESIAN_POINT('Origin',(51.19,-71.3078232611781,1.18));
#656=CARTESIAN_POINT('',(51.19,-74.9,1.18));
#657=CARTESIAN_POINT('Origin',(51.19,-71.3078232611781,1.18));
#658=CARTESIAN_POINT('',(51.19,-74.9,1.2));
#659=CARTESIAN_POINT('Origin',(51.19,-71.3078232611781,1.2));
#660=CARTESIAN_POINT('',(51.19,-74.9,1.18));
#661=CARTESIAN_POINT('Origin',(52.69,-74.9,1.18));
#662=CARTESIAN_POINT('',(52.69,-74.9,1.18));
#663=CARTESIAN_POINT('',(52.69,-74.9,1.18));
#664=CARTESIAN_POINT('',(52.69,-74.9,1.2));
#665=CARTESIAN_POINT('',(52.69,-74.9,1.2));
#666=CARTESIAN_POINT('',(52.69,-74.9,1.18));
#667=CARTESIAN_POINT('Origin',(52.69,-83.9,1.18));
#668=CARTESIAN_POINT('',(52.69,-83.9,1.18));
#669=CARTESIAN_POINT('',(52.69,-83.9,1.18));
#670=CARTESIAN_POINT('',(52.69,-83.9,1.2));
#671=CARTESIAN_POINT('',(52.69,-83.9,1.2));
#672=CARTESIAN_POINT('',(52.69,-83.9,1.18));
#673=CARTESIAN_POINT('Origin',(-54.4,-83.9,1.18));
#674=CARTESIAN_POINT('',(-54.4,-83.9,1.18));
#675=CARTESIAN_POINT('',(-54.4,-83.9,1.18));
#676=CARTESIAN_POINT('',(-54.4,-83.9,1.2));
#677=CARTESIAN_POINT('',(-54.4,-83.9,1.2));
#678=CARTESIAN_POINT('',(-54.4,-83.9,1.18));
#679=CARTESIAN_POINT('Origin',(-54.4,83.9,1.18));
#680=CARTESIAN_POINT('',(-54.4,83.9,1.18));
#681=CARTESIAN_POINT('',(-54.4,83.9,1.2));
#682=CARTESIAN_POINT('Origin',(-0.854999999999997,0.,1.2));
#683=CARTESIAN_POINT('Origin',(-0.854999999999997,0.,1.18));
#684=UNCERTAINTY_MEASURE_WITH_UNIT(LENGTH_MEASURE(0.01),#688,
'DISTANCE_ACCURACY_VALUE',
'Maximum model space distance between geometric entities at asserted c
onnectivities');
#685=UNCERTAINTY_MEASURE_WITH_UNIT(LENGTH_MEASURE(0.01),#688,
'DISTANCE_ACCURACY_VALUE',
'Maximum model space distance between geometric entities at asserted c
onnectivities');
#686=(
GEOMETRIC_REPRESENTATION_CONTEXT(3)
GLOBAL_UNCERTAINTY_ASSIGNED_CONTEXT((#684))
GLOBAL_UNIT_ASSIGNED_CONTEXT((#688,#690,#691))
REPRESENTATION_CONTEXT('','3D')
);
#687=(
GEOMETRIC_REPRESENTATION_CONTEXT(3)
GLOBAL_UNCERTAINTY_ASSIGNED_CONTEXT((#685))
GLOBAL_UNIT_ASSIGNED_CONTEXT((#688,#690,#691))
REPRESENTATION_CONTEXT('','3D')
);
#688=(
LENGTH_UNIT()
NAMED_UNIT(*)
SI_UNIT(.MILLI.,.METRE.)
);
#689=(
LENGTH_UNIT()
NAMED_UNIT(*)
SI_UNIT($,.METRE.)
);
#690=(
NAMED_UNIT(*)
PLANE_ANGLE_UNIT()
SI_UNIT($,.RADIAN.)
);
#691=(
NAMED_UNIT(*)
SI_UNIT($,.STERADIAN.)
SOLID_ANGLE_UNIT()
);
#692=SHAPE_DEFINITION_REPRESENTATION(#693,#694);
#693=PRODUCT_DEFINITION_SHAPE('',$,#696);
#694=SHAPE_REPRESENTATION('',(#432),#686);
#695=PRODUCT_DEFINITION_CONTEXT('part definition',#700,'design');
#696=PRODUCT_DEFINITION('eINK_screen_3D','eINK_screen_3D v3',#697,#695);
#697=PRODUCT_DEFINITION_FORMATION('',$,#702);
#698=PRODUCT_RELATED_PRODUCT_CATEGORY('eINK_screen_3D v3',
'eINK_screen_3D v3',(#702));
#699=APPLICATION_PROTOCOL_DEFINITION('international standard',
'ap242_managed_model_based_3d_engineering',2011,#700);
#700=APPLICATION_CONTEXT('Managed model based 3d engineering');
#701=PRODUCT_CONTEXT('part definition',#700,'mechanical');
#702=PRODUCT('eINK_screen_3D','eINK_screen_3D v3',$,(#701));
#703=PRESENTATION_STYLE_ASSIGNMENT((#706));
#704=PRESENTATION_STYLE_ASSIGNMENT((#707));
#705=PRESENTATION_STYLE_ASSIGNMENT((#708));
#706=SURFACE_STYLE_USAGE(.BOTH.,#709);
#707=SURFACE_STYLE_USAGE(.BOTH.,#710);
#708=SURFACE_STYLE_USAGE(.BOTH.,#711);
#709=SURFACE_SIDE_STYLE('',(#712));
#710=SURFACE_SIDE_STYLE('',(#713));
#711=SURFACE_SIDE_STYLE('',(#714));
#712=SURFACE_STYLE_FILL_AREA(#715);
#713=SURFACE_STYLE_FILL_AREA(#716);
#714=SURFACE_STYLE_FILL_AREA(#717);
#715=FILL_AREA_STYLE('Steel - Satin',(#718));
#716=FILL_AREA_STYLE('EPX 82 (with Carbon M2 M3 L1 3D Printers)',(#719));
#717=FILL_AREA_STYLE('Plastic - Translucent Glossy (Green)',(#720));
#718=FILL_AREA_STYLE_COLOUR('Steel - Satin',#721);
#719=FILL_AREA_STYLE_COLOUR('EPX 82 (with Carbon M2 M3 L1 3D Printers)',
#722);
#720=FILL_AREA_STYLE_COLOUR('Plastic - Translucent Glossy (Green)',#723);
#721=COLOUR_RGB('Steel - Satin',0.627450980392157,0.627450980392157,0.627450980392157);
#722=COLOUR_RGB('EPX 82 (with Carbon M2 M3 L1 3D Printers)',0.247058823529412,
0.247058823529412,0.247058823529412);
#723=COLOUR_RGB('Plastic - Translucent Glossy (Green)',0.266666666666667,
0.588235294117647,0.282352941176471);
ENDSEC;
END-ISO-10303-21;
